<svg width="46" height="33" viewBox="0 0 46 33" fill="none" xmlns="http://www.w3.org/2000/svg">
<path opacity="0.7" d="M23.0056 32.9975H3.17978C1.0078 32.9975 0.00217198 31.9918 0 29.792C0 20.9139 0 12.0343 0 3.15325C0 1.18131 1.13594 -0.133318 2.82357 0.0726408C3.55944 0.199941 4.24045 0.547251 4.77835 1.06957C6.78526 2.96263 8.67705 4.94991 10.6123 6.89775C12.1066 8.40738 13.5553 8.40738 15.0496 6.91309C16.9936 4.96744 18.9179 3.00864 20.8532 1.0608C22.2476 -0.341467 23.7223 -0.352422 25.1124 1.04108C27.0346 2.96482 28.9394 4.90171 30.8595 6.83421C32.4385 8.42272 33.8503 8.43367 35.4206 6.86269C37.3754 4.89075 39.315 2.91881 41.285 0.946869C42.5621 -0.319556 44.3431 -0.32832 45.3357 0.997263C45.7285 1.54481 45.9481 2.19934 45.9656 2.87499C46.0047 11.9722 46.0105 21.0702 45.983 30.1689C45.983 31.9217 44.8579 32.9822 43.0812 32.9844C36.3872 32.999 29.6953 33.0033 23.0056 32.9975Z" fill="#438BFF"/>
</svg>
