<svg width="37" height="46" viewBox="0 0 37 46" fill="none" xmlns="http://www.w3.org/2000/svg">
    <path fill-rule="evenodd" clip-rule="evenodd" d="M24.0957 1.84342C22.2849 0.637921 20.1572 -0.00358342 17.9819 1.50564e-05C16.5358 -0.00180454 15.1036 0.282366 13.7677 0.836174C12.4318 1.38998 11.2187 2.20249 10.198 3.22695C9.1774 4.25141 8.36941 5.4676 7.82059 6.80552C7.27177 8.14344 6.99294 9.57669 7.00014 11.0228C7.00465 13.1982 7.65407 15.3234 8.8663 17.1297C10.0785 18.9361 11.7991 20.3424 13.8106 21.1709C15.822 21.9995 18.0339 22.213 20.1667 21.7845C22.2995 21.356 24.2573 20.3048 25.7927 18.7637C27.328 17.2226 28.372 15.2608 28.7925 13.1265C29.213 10.9921 28.9913 8.78096 28.1553 6.77262C27.3192 4.76428 25.9065 3.04892 24.0957 1.84342ZM18.3031 26C21.9287 25.994 25.4748 27.0632 28.4928 29.0724C31.5108 31.0815 33.8654 33.9405 35.2588 37.2877C36.4082 40.049 36.861 43.0403 36.5908 46H0.0760905C0.0267998 45.46 0.0013568 44.9166 0.000227079 44.3713C-0.0117857 41.9612 0.452932 39.5724 1.36764 37.3425C2.28235 35.1127 3.62898 33.0857 5.33006 31.3783C7.03113 29.6708 9.05306 28.3166 11.2795 27.3936C13.5059 26.4706 15.8929 25.997 18.3031 26Z" fill="url(#paint0_linear_279_772)" fill-opacity="0.7"/>
    <defs>
        <linearGradient id="paint0_linear_279_772" x1="17.8404" y1="-2.65025e-09" x2="17.9464" y2="46.4446" gradientUnits="userSpaceOnUse">
            <stop stop-color="white"/>
            <stop offset="1" stop-color="#438BFF"/>
        </linearGradient>
    </defs>
</svg>
