<svg width="60" height="23" viewBox="0 0 60 23" fill="none" xmlns="http://www.w3.org/2000/svg">
<path opacity="0.45" d="M8.39813 7.71489L1.56412 3.78516L0 6.47283L6.835 10.3731L8.36955 9.50667L8.39813 9.47717V7.71489Z" fill="#EFEFEF"/>
<path opacity="0.45" d="M13.0011 10.3728L11.4666 11.2687V13.0605L14.8254 14.9958V11.4418L13.0011 10.3728Z" fill="#EFEFEF"/>
<path opacity="0.8" d="M9.93484 8.60926L8.39734 9.47565V7.71436L9.93484 8.60926Z" fill="#EFEFEF"/>
<path opacity="0.45" d="M11.439 0H8.36993L8.39852 7.7149L9.93306 8.61079L11.4686 7.7149L11.439 0Z" fill="#EFEFEF"/>
<path d="M11.4686 11.2686V22.7676H8.36993V13.0603H8.39753L9.93504 12.1654L11.4686 11.2686Z" fill="#EFEFEF"/>
<path d="M39.4126 18.6355L41.8735 20.1382C40.1941 21.7559 38.7749 22.9989 35.4446 22.9989C30.4349 22.9989 28.9004 19.5609 28.9004 17.5665C28.9004 12.857 33.5336 12.0476 35.213 12.0476C40.9175 12.0476 41.9603 15.6597 41.6419 17.9422H32.1439C32.1439 19.2718 33.3887 20.7164 35.5895 20.7164C37.0087 20.7164 38.63 19.9071 39.4116 18.6365L39.4126 18.6355ZM32.3469 16.1219H38.3698C38.1668 15.1975 37.0669 14.2731 35.3579 14.2731C33.6489 14.2731 32.5776 15.1109 32.3459 16.1219H32.3469Z" fill="#EFEFEF"/>
<path d="M52.7037 16.7877C54.325 17.1918 55.2524 18.2608 55.2228 19.6189C55.2228 22.5662 51.6895 22.9999 49.9815 22.9999C47.694 22.9999 45.0871 22.3646 43.3506 20.1686L45.9564 18.724C46.5645 19.6484 47.9256 20.7754 50.0397 20.7754C51.4875 20.7754 52.3272 20.5443 52.3568 19.909C52.3854 18.7535 49.3449 18.5224 48.0419 18.3483C47.4338 18.2618 44.0168 17.6255 44.0168 15.3145C44.0168 13.9849 45.4932 12.0496 49.3163 12.0496C53.1393 12.0496 54.7892 13.5227 55.0208 13.9279C54.2097 14.3901 53.4281 14.8523 52.6751 15.286C51.5171 14.1875 49.6928 14.1305 49.0265 14.1305C47.5501 14.1305 47.0287 14.6212 47.0287 15.0549C47.0287 16.0953 49.6346 16.0088 52.7047 16.7886L52.7037 16.7877Z" fill="#EFEFEF"/>
<path d="M59.8551 11.356V22.7695H56.7564V13.1182L59.8551 11.356Z" fill="#EFEFEF"/>
<path opacity="0.8" d="M8.39796 9.47485V11.2981L6.83582 10.3727L8.39796 9.47485Z" fill="#EFEFEF"/>
<path opacity="0.45" d="M8.39813 11.2972L6.835 10.3728L0 14.3025L1.56412 16.9902L8.39813 13.0605V11.2972Z" fill="#EFEFEF"/>
<path opacity="0.8" d="M9.93484 12.1659L8.39734 13.0609V11.2996L9.93484 12.1659Z" fill="#EFEFEF"/>
<path opacity="0.8" d="M11.4655 7.71436V9.47565L9.93196 8.60926L11.4655 7.71436Z" fill="#EFEFEF"/>
<path opacity="0.8" d="M13.0011 10.3735L11.4666 11.2684V9.5061L13.0011 10.3735Z" fill="#EFEFEF"/>
<path d="M11.4684 9.47674V11.2695L9.93484 12.1664L8.39734 11.3V9.47674L9.93484 8.61035L11.4684 9.47674Z" fill="#EFEFEF"/>
<path opacity="0.45" d="M19.8342 6.47405L13.0011 10.3753L11.4666 9.50788V7.7161L18.2996 3.78735L19.8342 6.47405Z" fill="#EFEFEF"/>
<path d="M60 9.96858L58.292 10.9225L56.6126 9.96858V8.03224L58.292 7.0498L60 8.03224V9.96858Z" fill="#EFEFEF"/>
<path d="M26.7288 16.6722C26.7288 14.5628 25.3392 12.1357 21.6324 12.1642C19.7214 12.1642 18.8235 12.6549 17.8103 13.1752L14.828 11.4414V22.7684H17.9266V16.6712C17.8981 15.3997 19.2591 14.2156 20.8223 14.2156C22.3854 14.2156 23.6312 15.082 23.6312 16.6712V22.7684H26.7298V16.6712L26.7288 16.6722Z" fill="#EFEFEF"/>
</svg>
