<svg width="23" height="23" viewBox="0 0 23 23" fill="none" xmlns="http://www.w3.org/2000/svg">
<g clip-path="url(#clip0_1_334)">
<path d="M11.1934 0.306668C4.52977 0.654862 0.131018 5.88097 0.408935 12.4711C0.530324 15.3557 1.68991 17.8378 1.96463 20.5754C2.03491 21.2846 1.83046 22.1599 2.64824 22.4697C3.65449 22.8499 5.19741 22.211 6.04074 21.6264C6.32824 21.4315 6.60296 21.2047 6.8138 20.9236C7.68588 21.5018 8.51324 22.0608 9.55144 22.31C14.1227 23.4057 19.1316 20.8981 21.3581 16.8699C25.5428 9.30222 19.8855 -0.146943 11.1934 0.306668ZM8.60588 16.1C8.24491 16.3811 7.89671 16.7644 7.49741 16.9849C6.91921 17.2947 6.74032 16.9721 6.5231 16.461C5.83949 14.835 5.75643 12.0654 6.15574 10.3628C6.69241 8.04681 8.48449 6.00875 10.9474 5.79153C13.4391 5.57111 15.7519 6.83611 16.7964 9.12014C19.1092 14.2025 13.1899 19.221 8.60588 16.1032V16.1Z" fill="white"/>
</g>
<defs>
<clipPath id="clip0_1_334">
<rect width="23" height="23" fill="white"/>
</clipPath>
</defs>
</svg>
