<svg width="44" height="44" viewBox="0 0 44 44" fill="none" xmlns="http://www.w3.org/2000/svg">
<path d="M32.799 9.42421e-07H11.2056C9.73427 -0.000602617 8.27725 0.288704 6.91775 0.851396C5.55825 1.41409 4.32292 2.23914 3.28232 3.27942C2.24173 4.31969 1.41626 5.55482 0.853065 6.91423C0.289875 8.27363 -1.23769e-07 9.7307 0 11.2022V32.7978C0.00121817 35.7693 1.18234 38.6186 3.28367 40.7192C5.38499 42.8199 8.23448 44 11.2056 44H32.799C35.7693 43.9988 38.6176 42.8182 40.718 40.7176C42.8183 38.6171 43.9988 35.7685 44 32.7978V11.2022C44 8.23117 42.8199 5.38186 40.7193 3.28104C38.6187 1.18023 35.7697 9.42421e-07 32.799 9.42421e-07ZM34.2049 32.2419L9.80432 32.1224C9.56062 32.1224 9.32691 32.0256 9.15458 31.8532C8.98226 31.6809 8.88546 31.4471 8.88546 31.2034C8.88546 30.9597 8.98226 30.726 9.15458 30.5536C9.32691 30.3813 9.56062 30.2845 9.80432 30.2845L34.2049 30.4039C34.4486 30.4039 34.6823 30.5007 34.8546 30.6731C35.0269 30.8454 35.1237 31.0792 35.1237 31.3229C35.1237 31.5666 35.0269 31.8004 34.8546 31.9727C34.6823 32.145 34.4486 32.2419 34.2049 32.2419ZM34.2049 22.9741L9.80432 22.8546C9.56062 22.8546 9.32691 22.7578 9.15458 22.5855C8.98226 22.4131 8.88546 22.1794 8.88546 21.9357C8.88546 21.6919 8.98226 21.4582 9.15458 21.2859C9.32691 21.1135 9.56062 21.0167 9.80432 21.0167L34.2049 21.1362C34.4486 21.1362 34.6823 21.233 34.8546 21.4053C35.0269 21.5777 35.1237 21.8114 35.1237 22.0551C35.1237 22.2989 35.0269 22.5326 34.8546 22.7049C34.6823 22.8773 34.4486 22.9741 34.2049 22.9741ZM34.2049 13.7063L9.79973 13.5777C9.55603 13.5777 9.32231 13.4809 9.14999 13.3085C8.97767 13.1362 8.88086 12.9025 8.88086 12.6587C8.88086 12.415 8.97767 12.1813 9.14999 12.0089C9.32231 11.8366 9.55603 11.7398 9.79973 11.7398L34.2003 11.8592C34.444 11.8592 34.6777 11.9561 34.85 12.1284C35.0223 12.3007 35.1191 12.5345 35.1191 12.7782C35.1191 13.0219 35.0223 13.2557 34.85 13.428C34.6777 13.6003 34.444 13.6972 34.2003 13.6972L34.2049 13.7063Z" fill="url(#paint0_linear_513_812)" fill-opacity="0.7"/>
<defs>
<linearGradient id="paint0_linear_513_812" x1="22" y1="4.35947e-09" x2="22.4681" y2="50.5532" gradientUnits="userSpaceOnUse">
<stop stop-color="white"/>
<stop offset="1" stop-color="#438BFF"/>
</linearGradient>
</defs>
</svg>
