<svg width="44" height="44" viewBox="0 0 44 44" fill="none" xmlns="http://www.w3.org/2000/svg">
<path d="M32.5441 2.31025e-05H11.4375C9.93574 -0.000580327 8.44855 0.294726 7.06092 0.869074C5.67328 1.44342 4.41238 2.28556 3.35025 3.34737C2.28812 4.40919 1.44556 5.66988 0.870719 7.05743C0.295874 8.44498 -1.21207e-07 9.9322 0 11.4341V32.5659C-1.21207e-07 34.0678 0.295874 35.555 0.870719 36.9426C1.44556 38.3301 2.28812 39.5908 3.35025 40.6526C4.41238 41.7145 5.67328 42.5566 7.06092 43.1309C8.44855 43.7053 9.93574 44.0006 11.4375 44H32.5671C34.07 44 35.5582 43.7036 36.9465 43.1279C38.3348 42.5521 39.596 41.7082 40.6579 40.6445C41.7197 39.5808 42.5615 38.3182 43.135 36.9288C43.7085 35.5394 44.0024 34.0506 44 32.5475V11.4158C43.9976 9.91382 43.6993 8.42708 43.1222 7.04045C42.5452 5.65382 41.7006 4.39448 40.6367 3.33437C39.5729 2.27426 38.3107 1.43415 36.9221 0.862037C35.5335 0.289919 34.0459 -0.00299599 32.5441 2.31025e-05ZM21.9793 35.4968C20.0236 35.4962 18.0913 35.0707 16.3162 34.2499C14.541 33.4291 12.9653 32.2325 11.698 30.7428C10.4306 29.2531 9.50198 27.5058 8.97618 25.6219C8.45038 23.738 8.33999 21.7624 8.65266 19.8316C8.96532 17.9008 9.69357 16.061 10.7871 14.4394C11.8805 12.8178 13.3131 11.453 14.9858 10.4395C16.6585 9.426 18.5313 8.78793 20.4748 8.56943C22.4183 8.35092 24.386 8.55718 26.242 9.17396C26.4734 9.25072 26.6649 9.41629 26.7743 9.63425C26.8837 9.85221 26.9021 10.1047 26.8253 10.3362C26.7486 10.5677 26.583 10.7592 26.3651 10.8686C26.1472 10.978 25.8947 10.9964 25.6632 10.9196C23.3218 10.1415 20.7941 10.1257 18.4432 10.8745C16.0923 11.6234 14.0392 13.0983 12.5791 15.0873C11.119 17.0764 10.327 19.4772 10.3168 21.9447C10.3067 24.4122 11.079 26.8194 12.5227 28.8204C13.9664 30.8213 16.0072 32.3131 18.3519 33.0812C20.6966 33.8494 23.2244 33.8544 25.5721 33.0955C27.9197 32.3367 29.9665 30.853 31.4181 28.8577C32.8697 26.8625 33.6515 24.4583 33.6511 21.9908C33.6515 21.5996 33.6315 21.2086 33.5914 20.8194C33.567 20.5757 33.6404 20.3323 33.7955 20.1428C33.9506 19.9533 34.1745 19.8331 34.4182 19.8087C34.6618 19.7844 34.9052 19.8578 35.0947 20.0129C35.2842 20.1679 35.4044 20.392 35.4287 20.6356C35.4747 21.095 35.4976 21.5544 35.4976 21.9908C35.4928 25.5721 34.0678 29.0053 31.5353 31.5372C29.0027 34.0692 25.5694 35.4931 21.9885 35.4968H21.9793ZM36.6781 12.8445L22.8153 24.4945C22.6323 24.6483 22.3966 24.7248 22.1582 24.7076C21.9198 24.6905 21.6974 24.5811 21.5384 24.4026L17.0047 19.3172C16.8427 19.1344 16.7599 18.8948 16.7745 18.651C16.7892 18.4072 16.9 18.1792 17.0828 18.0171C17.2655 17.8551 17.5051 17.7723 17.7489 17.7869C17.9927 17.8016 18.2207 17.9125 18.3827 18.0952L22.3284 22.5145L35.5114 11.4341C35.6984 11.2776 35.9399 11.2017 36.1829 11.2233C36.4258 11.2448 36.6502 11.362 36.8068 11.549C36.9633 11.736 37.0391 11.9776 37.0176 12.2205C36.9961 12.4634 36.8789 12.6879 36.6919 12.8445H36.6781Z" fill="url(#paint0_linear_513_813)" fill-opacity="0.7"/>
<defs>
<linearGradient id="paint0_linear_513_813" x1="22" y1="0" x2="22" y2="57.5" gradientUnits="userSpaceOnUse">
<stop stop-color="white"/>
<stop offset="1" stop-color="#438BFF"/>
</linearGradient>
</defs>
</svg>
