<svg width="31" height="24" viewBox="0 0 31 24" fill="none" xmlns="http://www.w3.org/2000/svg">
<mask id="mask0_1_334" style="mask-type:alpha" maskUnits="userSpaceOnUse" x="0" y="0" width="31" height="24">
<rect width="31" height="24" fill="#D9D9D9"/>
</mask>
<g mask="url(#mask0_1_334)">
<path d="M27.6291 2.32377C26.8442 1.75527 24.657 1 15.4923 1C5.67129 1 4.21423 1.86733 3.74662 2.15113C1.25798 3.65572 1.0217 10.317 1 11.6676C1.02987 13.4515 1.3164 19.3866 3.74483 20.8548C4.21154 21.1377 5.66042 22 15.4923 22C24.6629 22 26.8473 21.2484 27.6291 20.6821C29.7501 19.1466 29.9941 13.8583 30 11.6444C29.9946 9.86421 29.809 3.90404 27.6291 2.3238L27.6291 2.32377ZM26.5717 19.2035C26.2562 19.4322 24.4446 20.1778 15.4923 20.1778C6.83724 20.1778 5.02123 19.5018 4.67813 19.2937C3.80453 18.7662 2.88249 15.966 2.8101 11.6626C2.88161 7.36876 3.81632 4.23425 4.68 3.71312C5.02401 3.50403 6.84678 2.82255 15.4923 2.82255C24.4374 2.82255 26.2539 3.5733 26.5716 3.80289C27.3471 4.36501 28.1772 7.32414 28.1894 11.6503C28.1772 16.0444 27.3416 18.6459 26.5717 19.2035ZM21.3961 10.7834L13.2504 5.75293C13.1131 5.66959 12.9562 5.62445 12.7959 5.62213C12.6355 5.61981 12.4775 5.66039 12.3378 5.73972C12.1981 5.81906 12.0818 5.93434 12.0008 6.07377C11.9198 6.2132 11.8771 6.37177 11.877 6.53326V16.5959C11.8772 16.8375 11.9726 17.0692 12.1423 17.24C12.3121 17.4109 12.5423 17.5069 12.7823 17.507C12.9471 17.5071 13.1088 17.4619 13.2499 17.3763L21.3957 12.344C21.6673 12.1787 21.8334 11.8831 21.8334 11.5637C21.8334 11.2444 21.6677 10.9478 21.3961 10.7834H21.3961ZM13.6881 14.982V8.14626L19.1764 11.5637L13.6881 14.982Z" fill="#EFEFEF"/>
</g>
</svg>
