<svg width="69" height="20" viewBox="0 0 69 20" fill="none" xmlns="http://www.w3.org/2000/svg">
<path fill-rule="evenodd" clip-rule="evenodd" d="M8.30644 0C3.82701 0 0.46744 2.77856 0.496154 7.60448H4.65972C4.62098 7.10371 4.68822 6.60031 4.8569 6.12829C5.02558 5.65627 5.29177 5.22663 5.63747 4.8684C5.98318 4.51017 6.40034 4.2317 6.86079 4.0518C7.32123 3.87191 7.81422 3.79478 8.30644 3.82564C10.2016 3.82564 11.4076 5.11255 11.4076 6.75044C11.4076 8.38832 10.0867 9.38276 7.96187 10.4357C5.55211 11.6398 3.05643 12.6566 0.496154 13.4775V19.0346H16.0019V15.2324H6.12415C7.56561 14.6474 8.96687 13.9513 10.2303 13.3312C13.5899 11.6933 15.5711 9.85072 15.5711 6.5457C15.5597 2.54458 12.6308 0 8.30644 0ZM22.319 4.09472H30.359V0.315879H18.299V19.0346H22.319V4.09472ZM36.6761 0.29248H32.6561V19.0346H36.6761L44.1418 7.07216V19.0346H48.1618V0.315879H44.1418L36.6761 12.2783V0.29248ZM68.348 11.9917H64.1844C63.8567 13.0266 63.2107 13.9266 62.3419 14.5587C61.4732 15.1908 60.4278 15.5213 59.3604 15.5014C56.0583 15.5014 53.9047 12.6059 53.9047 9.65184C53.9047 6.69779 56.0009 3.80224 59.4753 3.80224C60.5295 3.78016 61.5616 4.11178 62.4125 4.74601C63.2635 5.38023 63.8861 6.28186 64.1844 7.312H68.348C67.745 3.12953 64.5003 0 59.3604 0C53.675 0 49.8847 4.06547 49.8847 9.65184C49.8847 15.2382 53.675 19.3037 59.3604 19.3037C64.4888 19.3037 67.7335 16.2326 68.3365 12.0151L68.348 11.9917Z" fill="white"/>
</svg>
