<svg width="400" height="65" viewBox="0 0 400 65" fill="none" xmlns="http://www.w3.org/2000/svg">
    <path d="M150.401 57.3945C150.401 57.3945 150.568 57.3274 150.636 57.2603C150.568 57.2938 150.468 57.3274 150.401 57.3945Z" fill="#EFEFEF"/>
    <path d="M152.214 56.3876C152.214 56.3876 152.315 56.3204 152.348 56.2869C152.315 56.2869 152.248 56.354 152.214 56.3876Z" fill="#EFEFEF"/>
    <path d="M151.778 56.6565C151.778 56.6565 151.912 56.5893 151.979 56.5222C151.912 56.5558 151.845 56.5893 151.778 56.6565Z" fill="#EFEFEF"/>
    <path d="M152.684 56.0855C152.684 56.0855 152.717 56.0856 152.751 56.052C152.751 56.052 152.717 56.052 152.684 56.0855Z" fill="#EFEFEF"/>
    <path d="M151.308 56.9243C151.308 56.9243 151.476 56.8236 151.543 56.79C151.476 56.8236 151.375 56.8907 151.308 56.9243Z" fill="#EFEFEF"/>
    <path d="M143.151 64.2081C150.703 64.2081 158.927 61.7915 165.136 55.0115C171.714 47.7953 173.426 38.4644 173.426 31.4495C173.426 26.8177 172.654 22.4879 171.11 18.5273C169.365 14.0969 162.249 0 143.185 0C136.036 0 127.813 2.24878 121.435 8.79378C113.179 17.2184 112.843 27.9253 112.843 31.4495C112.843 39.1021 115.025 47.9966 120.898 54.6759C127.645 62.3285 136.472 64.2081 143.185 64.2081H143.151ZM143.151 5.20244C154.63 5.20244 161.947 15.6744 161.947 31.416C161.947 49.1043 154.462 58.9721 143.151 58.9721C128.853 58.9721 124.255 43.8683 124.255 31.416C124.255 16.8492 130.934 5.20244 143.151 5.20244Z" fill="#EFEFEF"/>
    <path d="M149.53 57.7971C149.53 57.7971 149.63 57.7635 149.697 57.73C149.63 57.73 149.597 57.7636 149.53 57.7971Z" fill="#EFEFEF"/>
    <path d="M149.965 57.5953C149.965 57.5953 150.099 57.5282 150.166 57.4946C150.099 57.4946 150.032 57.5618 149.965 57.5953Z" fill="#EFEFEF"/>
    <path d="M150.871 57.1594C150.871 57.1594 151.039 57.0587 151.14 57.0251C151.039 57.0587 150.972 57.1259 150.871 57.1594Z" fill="#EFEFEF"/>
    <path d="M172.251 21.9172C172.251 21.9172 172.184 21.6822 172.151 21.5815C172.151 21.6822 172.218 21.8165 172.251 21.9172Z" fill="#EFEFEF"/>
    <path d="M35.5439 38.1283C35.5439 38.1283 35.5441 38.0612 35.5105 38.0276C35.5105 38.0276 35.5103 38.0947 35.5439 38.1283Z" fill="#EFEFEF"/>
    <path d="M39.2028 29.8046C35.5779 27.7908 31.1475 27.5223 26.8849 27.5223C20.8433 27.5223 16.9498 27.5223 16.9498 27.5223V6.07483C16.9498 6.04127 30.2077 6.07483 30.2077 6.07483C33.8662 6.30978 35.947 6.77969 37.4238 7.71949C38.8671 8.65928 39.807 10.069 40.7133 12.7876H42.0557C42.0557 12.2171 42.5592 2.75198 42.5592 1.71149L42.2571 1.40942H0V2.75197C5.00105 4.43017 6.24292 6.37691 6.71282 13.1569C6.71282 13.3582 6.71282 13.4925 6.71282 13.5932C6.71282 25.9112 6.71282 61.7241 6.71282 62.5296L7.01478 62.8317C7.48468 62.8317 23.2263 62.8317 28.0931 62.8317C32.9599 62.8317 36.6855 62.2947 40.2097 59.6767C41.5858 58.6362 47.896 54.3064 47.896 44.405C47.896 36.7188 43.9354 32.4562 39.2364 29.8382L39.2028 29.8046ZM33.0605 54.9777C30.9796 57.3943 28.1602 58.4684 23.8304 58.4684H16.8826V31.8856C17.0505 31.8856 18.9637 31.8856 23.2599 31.8856C27.5561 31.8856 30.1741 32.5569 32.3222 34.2351C35.2423 36.5175 36.7191 39.941 36.7191 44.4386C36.7191 48.5669 35.4773 52.1583 32.9936 55.0448L33.0605 54.9777Z" fill="#EFEFEF"/>
    <path d="M232.666 31.416C232.666 24.6025 231.692 19.2658 229.645 15.171C227.631 11.1097 224.744 8.52534 222.16 6.51149C219.743 4.6319 216.924 3.22221 213.803 2.31598C210.916 1.47688 207.66 1.04053 204.103 1.04053C201.954 1.04053 199.773 1.14123 197.658 1.20836C195.644 1.27549 193.765 1.37614 191.986 1.37614C184.736 1.37614 177.923 1.37614 176.647 1.37614H176.446H176.244V2.71873C178.963 3.62496 180.373 4.56474 181.313 6.008C182.252 7.45125 182.722 9.53226 182.957 13.2243C182.957 15.943 182.957 28.5631 182.957 40.3776C182.957 50.7825 182.957 60.6168 182.957 62.4964L183.259 62.7984H192.523C194.47 62.7984 196.618 62.8991 198.699 62.9663C200.679 63.0334 202.525 63.1341 204.136 63.1341C206.888 63.1341 209.573 62.7313 212.191 61.9258C214.642 61.1874 217.092 60.0797 219.441 58.6029C225.483 54.8773 232.699 47.124 232.699 31.3824L232.666 31.416ZM216.051 51.2524C212.158 56.0856 208.164 58.133 202.626 58.133H193.127C193.127 57.3946 193.127 8.25682 193.127 6.14228V6.07514C193.429 6.07514 194.57 6.07514 196.45 6.07514C199.202 6.07514 202.659 6.07514 202.693 6.07514C208.432 6.07514 213.265 8.29038 216.018 12.1167C219.643 17.1849 221.153 22.79 221.153 31.4496C221.153 40.6461 219.508 46.9226 216.018 51.2524H216.051Z" fill="#EFEFEF"/>
    <path d="M330.607 62.5296L330.909 62.8317C333.527 62.8317 346.852 62.8317 347.524 62.8317V61.4556C342.523 59.7774 341.247 57.8307 340.811 51.0171V1.71149L340.509 1.40942C338.764 1.40942 324.599 1.40942 323.895 1.40942V2.75197C328.896 4.43017 330.171 6.41049 330.607 13.224C330.607 18.2922 330.607 28.8313 330.607 29.2005C330.507 29.2005 303.32 29.2005 303.32 29.2005V1.71149L303.018 1.40942C302.615 1.40942 287.008 1.40942 286.404 1.40942V2.75197C289.122 3.6582 290.532 4.59803 291.472 6.04128C292.411 7.48454 292.881 9.56549 293.116 13.2575C293.116 13.2575 293.116 58.804 293.116 62.5296L293.418 62.8317H310.033C310.033 62.8317 310.033 62.2611 310.033 61.4891C305.032 59.8109 303.79 57.8642 303.32 51.0843C303.32 46.9223 303.32 34.2351 303.32 33.8994C303.42 33.8994 330.607 33.8994 330.607 33.8994V62.5632V62.5296Z" fill="#EFEFEF"/>
    <path d="M279.992 58.737C279.992 58.737 281.838 55.0785 282.308 49.4398C282.04 49.4398 281.805 49.4398 281.536 49.4398C281.201 49.4398 280.865 49.4398 280.395 49.4398C280.395 51.1851 279.388 53.3668 277.811 55.0785C275.998 57.0588 273.783 58.1329 271.534 58.1329C270.527 58.1329 252.772 58.1329 252.772 58.1329V33.6647C252.906 33.6647 266.365 33.6647 270.628 33.6647C274.421 33.6647 275.83 32.3892 275.83 28.9993H252.772V6.07498H266.567C273.414 6.54488 275.26 8.39088 276.905 13.2912H278.247C278.247 12.7206 278.784 2.91996 278.818 1.67809L278.516 1.37598C277.71 1.37598 274.253 1.37598 268.178 1.37598C255.524 1.37598 235.923 1.37598 235.923 1.37598H235.856V2.71857C238.574 3.6248 239.984 4.56458 240.924 6.00784C241.864 7.45109 242.334 9.5321 242.569 13.2241C242.569 14.3318 242.569 58.2671 242.569 62.4962L242.87 62.7983C245.321 62.7983 278.113 62.7983 278.113 62.7983C278.113 62.7983 279.455 60.1131 280.06 58.7034L279.992 58.737Z" fill="#EFEFEF"/>
    <path d="M399.312 1.40942H349.805L349.503 1.71149C349.503 4.06097 350.007 12.2506 350.04 12.7541H351.383C352.255 10.1361 353.195 8.69283 354.571 7.75303C355.981 6.81324 357.961 6.30978 361.418 6.07483C361.418 6.07483 369.272 6.07483 369.44 6.07483C369.44 6.27621 369.44 37.4908 369.44 50.95C369.205 54.6085 368.735 56.6895 367.796 58.1663C366.856 59.6096 365.446 60.5493 362.727 61.4556V62.7981H386.39V61.4556C381.624 59.8445 380.315 57.9985 379.811 52.1248C379.744 51.4535 379.711 50.7822 379.711 50.0438C379.711 42.7939 379.711 6.07483 379.711 6.07483H387.598C391.123 6.30978 393.103 6.81324 394.546 7.75303C395.956 8.69283 396.862 10.1361 397.768 12.7541H399.111C399.144 12.3178 399.648 5.94056 399.648 1.71149L399.346 1.40942H399.312Z" fill="#EFEFEF"/>
    <path d="M93.8124 62.4962L94.1144 62.7983H110.729V61.4557C105.728 59.7775 104.486 57.8308 104.016 51.1515V1.71164L103.714 1.40957H94.1144L93.7788 1.6445L68.3708 50.7488H68.1694C68.1694 50.7488 68.203 7.58537 68.203 1.67809L67.9008 1.37598H51.2532V2.71857C53.9719 3.6248 55.3814 4.56458 56.3212 6.00784C57.261 7.45109 57.731 9.53205 57.966 13.1234C57.966 22.1521 57.966 58.6364 57.966 62.4627L58.268 62.7647H67.8672L68.203 62.5298L93.5438 13.5262H93.7452C93.7452 13.5262 93.7452 57.2602 93.7452 62.4962H93.8124Z" fill="#EFEFEF"/>
</svg>
