<svg width="146" height="27" viewBox="0 0 146 27" xmlns="http://www.w3.org/2000/svg">
    <path fill-rule="evenodd" clip-rule="evenodd" d="M74.0021 13.9242L79.9882 11.4372C79.6556 10.5986 78.6724 10.0202 77.5012 10.0202C76.0047 10.013 73.9298 11.336 74.0021 13.9242ZM81.0292 16.3316L83.3138 17.8499C82.5764 18.9415 80.8051 20.8212 77.7326 20.8212C73.9298 20.8212 71.1825 17.8788 71.1825 14.1266C71.1825 10.1431 73.9515 7.43201 77.4072 7.43201C80.581 7.54046 82.5547 9.58643 83.4439 12.4494L74.4792 16.1509C75.166 17.4956 76.2288 18.1824 77.7253 18.1824C79.2146 18.1824 80.2557 17.445 81.0148 16.3316M66.4833 20.4164H69.4258V0.751879H66.4833V20.4164ZM61.6829 14.1483C61.6829 11.7915 60.1068 10.0636 58.1042 10.0636C56.0799 10.0636 54.3737 11.7915 54.3737 14.1483C54.3737 16.4835 56.0727 18.1824 58.1042 18.1824C60.114 18.1824 61.6829 16.4835 61.6829 14.1483ZM64.2711 7.83688V19.838C64.2711 24.783 61.3575 26.8146 57.909 26.8146C54.6629 26.8146 52.7109 24.6312 51.9735 22.86L54.5328 21.7972C54.9883 22.8889 56.1089 24.183 57.909 24.183C61.1985 23.8092 61.4877 21.6815 61.4877 19.2885H61.3792C60.7213 20.0983 59.4489 20.814 57.8512 20.814C54.5039 20.814 51.4313 17.9005 51.4313 14.1411C51.4313 10.36 54.4967 7.41756 57.8512 7.41756C59.4489 7.41756 60.7213 8.12605 61.3792 8.91408H61.4804V7.82241C61.4804 7.81518 64.2711 7.81519 64.2711 7.81519V7.83688ZM32.1717 14.1266C32.1717 11.7192 30.451 10.0708 28.4629 10.0708C26.4675 10.0708 24.7541 11.7192 24.7541 14.1266C24.7541 16.5124 26.4748 18.1824 28.4629 18.1824C30.451 18.1824 32.1717 16.5052 32.1717 14.1266ZM35.0635 14.1266C35.0635 17.98 32.0994 20.8212 28.4629 20.8212C24.8264 20.8212 21.8623 17.98 21.8623 14.1266C21.8623 10.2443 24.8264 7.43201 28.4629 7.43201C32.0994 7.43201 35.0635 10.2443 35.0635 14.1266ZM46.9923 14.1266C46.9923 11.7192 45.2717 10.0708 43.2836 10.0708C41.2882 10.0708 39.5748 11.7192 39.5748 14.1266C39.5748 16.5124 41.2954 18.1824 43.2836 18.1824C45.2717 18.1824 46.9923 16.5052 46.9923 14.1266ZM49.8842 14.1266C49.8842 17.98 46.92 20.8212 43.2836 20.8212C39.6471 20.8212 36.6829 17.98 36.6829 14.1266C36.6829 10.2443 39.6471 7.43201 43.2836 7.43201C46.92 7.43201 49.8842 10.2443 49.8842 14.1266ZM10.5552 20.8212C4.82937 20.8212 0 16.1509 0 10.4106C0 4.67755 4.82214 0 10.5552 0C13.729 0 15.9846 1.24349 17.6836 2.87014L15.681 4.87275C14.4664 3.73047 12.8181 2.84122 10.5552 2.84122C6.36927 2.84122 3.10872 6.21744 3.10872 10.36C3.10872 14.5459 6.38373 17.8788 10.5552 17.8788C13.2663 17.8788 14.8134 16.7871 15.8039 15.7967C16.6136 14.9869 17.1486 13.8157 17.351 12.218H10.5552V9.37678H20.0983C20.1995 9.88285 20.2501 10.4901 20.2501 11.148C20.2501 13.2808 19.6645 15.9196 17.792 17.792C15.9702 19.7079 13.635 20.7272 10.5624 20.7272" />
    <path d="M90.3511 20.2674V2.78583H92.6087L98.68 13.4334H98.7715L104.843 2.78583H107.1V20.2674H104.844L104.935 6.96555H104.844L99.3824 16.5453H98.0705L92.6095 6.96555H92.5179C92.6845 11.3901 92.6095 15.8436 92.6095 20.2674H90.3511ZM114.148 20.5725C112.867 20.5725 111.829 20.2064 110.975 19.4742C110.121 18.742 109.694 17.7657 109.694 16.5751C109.694 15.2632 110.212 14.2564 111.219 13.5242C112.226 12.792 113.477 12.4259 114.941 12.4259C116.253 12.4259 117.351 12.67 118.175 13.1581C118.153 10.6205 116.4 9.92418 115.033 9.92418C113.742 9.98549 112.623 10.5252 112.165 11.6632L110.121 10.7784C110.395 10.0767 110.945 9.40481 111.768 8.79535C112.592 8.1859 113.66 7.88009 115.002 7.88009C116.528 7.88009 117.809 8.33772 118.816 9.22248C119.823 10.1072 120.341 11.3886 120.341 13.0056V20.2362H118.206V18.5887C117.208 19.8396 115.86 20.5443 114.148 20.5718V20.5725ZM118.175 15.0199C116.86 14.0192 114.117 13.8941 112.836 14.9284C111.829 15.9046 111.723 17.2135 112.775 17.9792C115.32 19.6115 118.267 17.0701 118.175 15.0199ZM129.097 20.5725C128.182 20.5725 127.358 20.3895 126.657 19.9928C125.955 19.5962 125.406 19.1081 125.04 18.5284H124.918L125.009 20.1759V25.4539H122.782V8.21641H124.918V9.86389H125.009C125.375 9.28422 125.894 8.79608 126.626 8.39947C127.358 8.00285 128.182 7.81979 129.067 7.81979C130.623 7.81979 131.935 8.42997 133.063 9.65033C134.192 10.8707 134.741 12.3961 134.741 14.1961C134.741 15.9962 134.192 17.5216 133.063 18.742C131.965 19.9623 130.623 20.5725 129.097 20.5725ZM128.731 18.4979C129.769 18.4979 130.653 18.1013 131.416 17.3081C132.179 16.5148 132.545 15.4775 132.545 14.1656C132.545 12.8538 132.179 11.8165 131.416 11.0232C130.653 10.23 129.769 9.83338 128.731 9.83338C127.663 9.83338 126.779 10.23 126.046 10.9927C125.314 11.7859 124.948 12.8232 124.948 14.1351C124.948 15.447 125.314 16.5148 126.046 17.2775C126.779 18.1318 127.663 18.4979 128.731 18.4979ZM141.301 20.5725C139.959 20.5725 138.86 20.2369 138.006 19.5962C137.121 18.9555 136.511 18.1318 136.084 17.1555L138.097 16.3318C138.738 17.8267 139.806 18.5894 141.331 18.5894C142.033 18.5894 142.613 18.4376 143.04 18.1318C143.498 17.8267 143.711 17.4301 143.711 16.9114C143.711 16.1182 143.162 15.5996 142.064 15.325L139.653 14.7453C138.891 14.5623 138.158 14.1656 137.487 13.647C136.816 13.1283 136.45 12.3656 136.45 11.4503C136.45 10.3825 136.908 9.52829 137.853 8.8876C138.799 8.21641 139.897 7.91132 141.179 7.91132C142.247 7.91132 143.192 8.15539 144.016 8.64353C144.84 9.13168 145.45 9.80288 145.786 10.7181L143.833 11.5114C143.406 10.4436 142.491 9.92491 141.087 9.92491C140.416 9.92491 139.867 10.0767 139.41 10.352C138.953 10.6273 138.739 10.9927 138.739 11.4809C138.739 12.1521 139.258 12.6402 140.325 12.8843L142.705 13.4334C143.834 13.708 144.658 14.1351 145.207 14.7758C145.756 15.4165 146 16.1182 146 16.9114C146 17.9792 145.573 18.8945 144.688 19.5962C143.834 20.2064 142.705 20.5725 141.302 20.5725H141.301Z" />
</svg>
