<svg width="37" height="43" viewBox="0 0 37 43" fill="none" xmlns="http://www.w3.org/2000/svg">
    <path opacity="0.7" d="M34.7805 6.13412C33.9204 6.12136 33.0616 6.05831 32.2087 5.94528C27.6141 5.16837 23.2631 3.31582 19.5035 0.535734C19.3463 0.366602 19.1564 0.231811 18.9457 0.139673C18.7349 0.0475343 18.5077 0 18.2781 0C18.0484 0 17.8212 0.0475343 17.6105 0.139673C17.3997 0.231811 17.2099 0.366602 17.0526 0.535734C12.3816 3.8681 7.33689 6.02304 1.55581 6.14522C1.34442 6.13315 1.13295 6.16729 0.935796 6.24531C0.738645 6.32332 0.560456 6.44338 0.413376 6.59731C0.266295 6.75123 0.15378 6.93539 0.0835014 7.13724C0.0132228 7.33909 -0.0131672 7.55388 0.00613015 7.76698C0.00613015 13.2543 0.00613028 18.7416 0.149009 24.2289C0.217385 26.6222 0.817993 28.9693 1.90629 31.096C2.99458 33.2228 4.54264 35.0746 6.43565 36.5142C9.87988 39.1239 13.6491 41.2639 17.6461 42.879C18.0675 43.0403 18.5326 43.0403 18.954 42.879C22.6346 41.3427 26.1332 39.394 29.3841 37.0696C31.4617 35.6265 33.1774 33.7133 34.3947 31.4822C35.612 29.2511 36.2973 26.7637 36.3961 24.2178C36.539 21.3297 36.55 10.4551 36.55 7.91138C36.539 6.72283 35.9895 6.22298 34.7805 6.13412ZM28.4169 17.8752L19.0089 28.1611C18.8091 28.3791 18.568 28.5543 18.2999 28.6764C18.0318 28.7985 17.7422 28.865 17.4483 28.872C16.8694 28.8754 16.3125 28.6479 15.8986 28.2388L8.21614 20.6632C7.99398 20.4631 7.81436 20.2194 7.68817 19.947C7.56197 19.6746 7.49183 19.3791 7.48199 19.0784C7.47215 18.7778 7.52282 18.4783 7.63093 18.198C7.73904 17.9178 7.90233 17.6626 8.11091 17.4481C8.31949 17.2335 8.56901 17.064 8.84435 16.9498C9.11969 16.8356 9.4151 16.7791 9.71269 16.7837C10.0103 16.7883 10.3038 16.854 10.5756 16.9767C10.8473 17.0994 11.0916 17.2766 11.2935 17.4975L17.3274 23.4735L25.1857 14.876C25.5852 14.4617 26.1288 14.2212 26.701 14.2057C27.2733 14.1901 27.8289 14.4008 28.2498 14.793C28.6707 15.1851 28.9236 15.7276 28.9549 16.3053C28.9861 16.883 28.7931 17.4502 28.4169 17.8863V17.8752Z" fill="url(#paint0_linear_279_771)"/>
    <defs>
        <linearGradient id="paint0_linear_279_771" x1="18.275" y1="0" x2="18.275" y2="56.4375" gradientUnits="userSpaceOnUse">
            <stop stop-color="white"/>
            <stop offset="1" stop-color="#438BFF"/>
        </linearGradient>
    </defs>
</svg>
