<svg width="31" height="24" viewBox="0 0 31 24" fill="none" xmlns="http://www.w3.org/2000/svg">
<mask id="mask0_1_322" style="mask-type:alpha" maskUnits="userSpaceOnUse" x="0" y="0" width="31" height="24">
<rect width="31" height="24" fill="#D9D9D9"/>
</mask>
<g mask="url(#mask0_1_322)">
</g>
<g clip-path="url(#clip0_1_322)">
<path d="M15.0899 2.99873C18.0527 2.99873 18.4005 3.01193 19.5716 3.06476C20.6546 3.11319 21.2401 3.29369 21.6319 3.44778C22.1514 3.65029 22.5212 3.88803 22.9087 4.27544C23.2961 4.66286 23.5382 5.03267 23.7363 5.55216C23.886 5.94398 24.0709 6.52951 24.1193 7.61252C24.1722 8.78358 24.1854 9.13138 24.1854 12.0942C24.1854 15.0571 24.1722 15.4049 24.1193 16.576C24.0709 17.659 23.8904 18.2445 23.7363 18.6363C23.5338 19.1558 23.2961 19.5256 22.9087 19.913C22.5212 20.3005 22.1514 20.5426 21.6319 20.7407C21.2401 20.8904 20.6546 21.0753 19.5716 21.1237C18.4005 21.1766 18.0527 21.1898 15.0899 21.1898C12.127 21.1898 11.7792 21.1766 10.6081 21.1237C9.52511 21.0753 8.93958 20.8948 8.54776 20.7407C8.02827 20.5382 7.65846 20.3005 7.27104 19.913C6.88363 19.5256 6.64149 19.1558 6.44338 18.6363C6.29369 18.2445 6.10879 17.659 6.06036 16.576C6.00753 15.4049 5.99432 15.0571 5.99432 12.0942C5.99432 9.13138 6.00753 8.78358 6.06036 7.61252C6.10879 6.52951 6.28929 5.94398 6.44338 5.55216C6.64589 5.03267 6.88363 4.66286 7.27104 4.27544C7.65846 3.88803 8.02827 3.64589 8.54776 3.44778C8.93958 3.29809 9.52511 3.11319 10.6081 3.06476C11.7792 3.00753 12.1314 2.99873 15.0899 2.99873ZM15.0899 1C12.0786 1 11.6999 1.01321 10.5157 1.06604C9.33581 1.11887 8.53015 1.30817 7.82576 1.58113C7.09494 1.86289 6.4786 2.2459 5.86225 2.86225C5.2459 3.4786 4.86729 4.09935 4.58113 4.82575C4.30817 5.53015 4.11887 6.3358 4.06604 7.52007C4.01321 8.69994 4 9.07855 4 12.0898C4 15.1011 4.01321 15.4798 4.06604 16.664C4.11887 17.8439 4.30817 18.6495 4.58113 19.3583C4.86289 20.0891 5.2459 20.7055 5.86225 21.3218C6.4786 21.9382 7.09935 22.3168 7.82576 22.603C8.53015 22.8759 9.33581 23.0652 10.5201 23.1181C11.7043 23.1709 12.0786 23.1841 15.0943 23.1841C18.11 23.1841 18.4842 23.1709 19.6684 23.1181C20.8483 23.0652 21.6539 22.8759 22.3628 22.603C23.0936 22.3212 23.7099 21.9382 24.3263 21.3218C24.9426 20.7055 25.3212 20.0847 25.6074 19.3583C25.8803 18.6539 26.0696 17.8483 26.1225 16.664C26.1753 15.4798 26.1885 15.1055 26.1885 12.0898C26.1885 9.07415 26.1753 8.69994 26.1225 7.51567C26.0696 6.3358 25.8803 5.53015 25.6074 4.82135C25.3256 4.09054 24.9426 3.47419 24.3263 2.85785C23.7099 2.2415 23.0892 1.86289 22.3628 1.57672C21.6584 1.30377 20.8527 1.11446 19.6684 1.06163C18.4798 1.01321 18.1011 1 15.0899 1Z" fill="#EFEFEF"/>
<path d="M15.0894 6.39746C11.946 6.39746 9.39258 8.94649 9.39258 12.0943C9.39258 15.242 11.9416 17.7911 15.0894 17.7911C18.2372 17.7911 20.7862 15.242 20.7862 12.0943C20.7862 8.94649 18.2372 6.39746 15.0894 6.39746ZM15.0894 15.7879C13.0466 15.7879 11.3913 14.1326 11.3913 12.0899C11.3913 10.0471 13.0466 8.39178 15.0894 8.39178C17.1321 8.39178 18.7875 10.0471 18.7875 12.0899C18.7875 14.1326 17.1321 15.7879 15.0894 15.7879Z" fill="#EFEFEF"/>
<path d="M21.0112 7.49796C21.7455 7.49796 22.3407 6.90271 22.3407 6.16842C22.3407 5.43413 21.7455 4.83887 21.0112 4.83887C20.2769 4.83887 19.6816 5.43413 19.6816 6.16842C19.6816 6.90271 20.2769 7.49796 21.0112 7.49796Z" fill="#EFEFEF"/>
</g>
<defs>
<clipPath id="clip0_1_322">
<rect width="22.1797" height="22.1797" fill="white" transform="translate(4 1)"/>
</clipPath>
</defs>
</svg>
