<svg width="32" height="43" viewBox="0 0 32 43" fill="none" xmlns="http://www.w3.org/2000/svg">
<path d="M15.5106 39.1713L15.5135 39.1746L15.5146 39.1759L15.5159 39.1775C15.5932 38.7653 15.638 38.2157 15.638 37.5C15.638 33.4061 15.4123 36.322 15.5091 39.1308L15.5106 39.1713Z" fill="#438BFF"/>
<path d="M15.4788 39.1352L15.5106 39.1713C14.4734 39.1713 15.3043 39.1494 15.4788 39.1352Z" fill="#438BFF"/>
<path fill-rule="evenodd" clip-rule="evenodd" d="M16.1527 0C7.40667 0 0 7.50686 0 16.3998C0 25.3272 7.88995 34.4486 13.63 41.0845C13.8774 41.3705 14.1207 41.6518 14.3593 41.9284C14.3813 41.9552 15.3147 43 16.4647 43H16.5667C17.7167 43 18.6434 41.9552 18.6667 41.9284C24.086 35.6497 32 25.2974 32 16.3998C32 7.50686 26.2227 0 16.1527 0ZM17.0126 40.2689C17.0726 40.2252 17.1407 40.1727 17.1873 40.1257C17.4568 39.8133 17.5903 39.5026 17.7229 39.1937C17.8488 38.9008 17.9739 38.6096 18.2137 38.3199C18.4716 37.6914 18.751 37.0075 19.0474 36.2821C22.8156 27.0605 29.3333 11.1097 29.3333 16.3998C29.3333 22.0362 25.5938 29.4044 18.2137 38.3199C17.8039 39.3187 17.6228 40.1779 17.4826 40.843C17.3854 41.3043 17.3078 41.6721 17.1873 41.9284C16.3899 43.624 15.5941 41.4662 15.5116 39.2003C14.7315 43.2457 10.7552 33.7804 15.4788 39.1352C15.4979 39.1336 15.5091 39.1308 15.5091 39.1308C15.4123 36.322 15.638 33.4061 15.638 37.5C15.638 38.2157 15.5932 38.7653 15.5159 39.1775C15.5357 39.2 15.6777 39.2228 15.8213 39.2458C15.9683 39.2695 16.1171 39.2933 16.138 39.3175L16.8353 40.1258C16.8846 40.1728 16.9513 40.2265 17.0126 40.2689ZM8.54663 16.1996C8.54663 11.7471 12.1286 8.13708 16.5466 8.13708C20.9646 8.13708 24.5466 11.7471 24.5466 16.1996C24.5466 20.6521 20.9646 24.2621 16.5466 24.2621C12.1286 24.2621 8.54663 20.6521 8.54663 16.1996Z" fill="#438BFF"/>
<path d="M15.5116 39.2003L15.5106 39.1713C13.9233 39.56 15.5113 39.1906 15.5116 39.2003Z" fill="#438BFF"/>
<path d="M15.5116 39.2003C15.5113 39.1906 13.9233 39.56 15.5106 39.1713C14.4734 39.1713 15.3043 39.1494 15.4788 39.1352C10.7552 33.7804 14.7315 43.2457 15.5116 39.2003Z" fill="#438BFF"/>
<path d="M17.1873 40.1257C17.1407 40.1727 17.0726 40.2252 17.0126 40.2689C16.9513 40.2265 16.8846 40.1728 16.8353 40.1258L16.138 39.3175C16.1171 39.2933 15.9683 39.2695 15.8213 39.2458C15.6777 39.2228 15.5357 39.2 15.5159 39.1775C15.5145 39.1851 15.5131 39.1927 15.5116 39.2003C15.5941 41.4662 16.3899 43.624 17.1873 41.9284C17.3078 41.6721 17.3854 41.3043 17.4826 40.843C17.6228 40.1779 17.8039 39.3187 18.2137 38.3199C17.9739 38.6096 17.8488 38.9008 17.7229 39.1937C17.5903 39.5026 17.4568 39.8133 17.1873 40.1257Z" fill="#438BFF"/>
<path d="M19.0474 36.2821C18.751 37.0075 18.4716 37.6914 18.2137 38.3199C25.5938 29.4044 29.3333 22.0362 29.3333 16.3998C29.3333 11.1097 22.8156 27.0605 19.0474 36.2821Z" fill="#438BFF"/>
<path fill-rule="evenodd" clip-rule="evenodd" d="M15.5135 39.1746L15.5106 39.1713L15.5091 39.1308C15.5091 39.1308 15.4979 39.1336 15.4788 39.1352L15.5106 39.1713L15.5116 39.2003L15.5159 39.1775L15.5146 39.1759L15.5135 39.1746Z" fill="#438BFF"/>
<path d="M16.5466 21.5746C13.606 21.5746 11.1519 19.1048 11.1519 16.1405C11.1519 13.1768 13.5446 10.7655 16.4853 10.7655C19.4279 10.7655 21.8186 13.1768 21.8186 16.1405C21.8199 19.1048 19.4893 21.5746 16.5466 21.5746Z" fill="white"/>
<path fill-rule="evenodd" clip-rule="evenodd" d="M16.5466 8.13708C12.1286 8.13708 8.54663 11.7471 8.54663 16.1996C8.54663 20.6521 12.1286 24.2621 16.5466 24.2621C20.9646 24.2621 24.5466 20.6521 24.5466 16.1996C24.5466 11.7471 20.9646 8.13708 16.5466 8.13708ZM11.1519 16.1405C11.1519 19.1048 13.606 21.5746 16.5466 21.5746C19.4893 21.5746 21.8199 19.1048 21.8186 16.1405C21.8186 13.1768 19.4279 10.7655 16.4853 10.7655C13.5446 10.7655 11.1519 13.1768 11.1519 16.1405Z" fill="white"/>
</svg>
