<svg width="19" height="19" viewBox="0 0 19 19" fill="none" xmlns="http://www.w3.org/2000/svg">
<path d="M0.828798 3.00875L3.35818 0.482065C3.66693 0.173353 4.08019 0 4.51719 0C4.95419 0 5.36744 0.170979 5.67619 0.482065L8.40033 3.2011C8.70908 3.50981 8.88246 3.92538 8.88246 4.36233C8.88246 4.80165 8.71146 5.21247 8.40033 5.52356L6.27232 7.65367C6.75712 8.78303 7.45366 9.80916 8.32433 10.6767C9.19596 11.5529 10.2148 12.244 11.3453 12.7332L13.4734 10.603C13.7821 10.2943 14.1954 10.121 14.6324 10.121C14.8479 10.1202 15.0614 10.1624 15.2605 10.2452C15.4595 10.328 15.64 10.4496 15.7914 10.603L18.5179 13.3221C18.8266 13.6308 19 14.0464 19 14.4833C19 14.9226 18.829 15.3335 18.5179 15.6445L15.9909 18.1712C15.4636 18.6984 14.7369 19 13.9911 19C13.8367 19 13.6871 18.9881 13.5351 18.962C10.3906 18.4443 7.26982 16.7702 4.74994 14.253C2.23243 11.731 0.560419 8.61067 0.0379162 5.46419C-0.11171 4.5713 0.187546 3.65229 0.828798 3.00875ZM1.7218 5.1816C2.18493 7.98138 3.69068 10.774 5.95882 13.0419C8.22695 15.3097 11.0176 16.8153 13.8177 17.2783C14.1692 17.3377 14.5302 17.219 14.7867 16.9649L17.2686 14.4833L14.6371 11.8498L11.7918 14.6994L11.7705 14.7208L11.2575 14.5308C9.70201 13.959 8.2895 13.0558 7.11785 11.8839C5.94619 10.712 5.04341 9.29937 4.47206 7.74391L4.28206 7.23097L7.15107 4.3647L4.51956 1.73116L2.03768 4.21272C1.78117 4.46919 1.66242 4.83015 1.7218 5.1816Z" fill="#EFEFEF"/>
</svg>
