<svg width="194" height="22" viewBox="0 0 194 22" xmlns="http://www.w3.org/2000/svg">
    <path d="M10.8642 3.5062H3.45956V15.8074H0V0.356567H14.3238V15.8074H10.8642V3.5062Z" />
    <path d="M17.6904 0.356555H21.15V2.0502C21.8581 1.39651 22.6167 0.891396 23.426 0.534832C24.2353 0.178277 25.1457 0 26.1572 0C27.2902 0 28.3322 0.207993 29.283 0.623971C30.2541 1.02015 31.0835 1.5847 31.7714 2.31763C32.4593 3.03074 32.9955 3.88256 33.3799 4.87291C33.7643 5.84359 33.9564 6.90336 33.9564 8.05221C33.9564 9.24076 33.744 10.3303 33.3192 11.3207C32.9145 12.2913 32.3581 13.1332 31.65 13.8463C30.942 14.5396 30.0923 15.0844 29.101 15.4806C28.1298 15.8767 27.0879 16.0748 25.9752 16.0748C24.9838 16.0748 24.0936 15.9263 23.3046 15.6291C22.5156 15.3319 21.7974 14.916 21.15 14.3812V21.75H17.6904V0.356555ZM25.4593 12.9252C26.1472 12.9252 26.7844 12.8163 27.3711 12.5983C27.9781 12.3805 28.5041 12.0635 28.9492 11.6476C29.3943 11.2118 29.7382 10.6967 29.981 10.1024C30.244 9.48835 30.3755 8.79507 30.3755 8.02258C30.3755 7.30945 30.2642 6.65577 30.0417 6.06145C29.8191 5.44738 29.4954 4.93236 29.0706 4.51639C28.6659 4.08057 28.1804 3.74381 27.6139 3.50619C27.0474 3.26848 26.4202 3.14959 25.7324 3.14959C24.6803 3.14959 23.7497 3.39717 22.9404 3.89243C22.1514 4.38761 21.5546 4.98193 21.15 5.67521V10.3699C21.5546 11.2019 22.1312 11.8357 22.8797 12.2715C23.6283 12.7073 24.4882 12.9252 25.4593 12.9252Z" />
    <path d="M35.7539 8.05221C35.7539 6.88351 35.9562 5.81387 36.3609 4.84327C36.7655 3.85283 37.3421 3.00102 38.0907 2.28791C38.8392 1.57479 39.7294 1.02015 40.7612 0.623971C41.793 0.207993 42.9361 0 44.1904 0C45.4245 0 46.5575 0.207993 47.5893 0.623971C48.6413 1.02015 49.5416 1.57479 50.2901 2.28791C51.0387 3.00102 51.6153 3.85283 52.02 4.84327C52.4448 5.81387 52.6572 6.88351 52.6572 8.05221C52.6572 9.221 52.4448 10.3005 52.02 11.291C51.6153 12.2617 51.0387 13.1035 50.2901 13.8166C49.5416 14.5297 48.6413 15.0843 47.5893 15.4806C46.5575 15.8767 45.4245 16.0748 44.1904 16.0748C42.9563 16.0748 41.8233 15.8767 40.7915 15.4806C39.7597 15.0843 38.8695 14.5297 38.121 13.8166C37.3724 13.1035 36.7857 12.2617 36.3609 11.291C35.9562 10.3005 35.7539 9.221 35.7539 8.05221ZM39.3349 8.05221C39.3349 8.74558 39.4462 9.38938 39.6687 9.98361C39.9115 10.5778 40.2453 11.0929 40.6701 11.5287C41.095 11.9645 41.6008 12.3111 42.1875 12.5687C42.7944 12.8063 43.4621 12.9252 44.1904 12.9252C44.9187 12.9252 45.5762 12.8163 46.1629 12.5983C46.7699 12.3606 47.2858 12.0338 47.7107 11.6179C48.1355 11.182 48.4693 10.667 48.7121 10.0728C48.9549 9.47847 49.0763 8.80494 49.0763 8.05221C49.0763 7.29948 48.9448 6.62605 48.6818 6.03173C48.439 5.41765 48.0951 4.90263 47.65 4.48666C47.2049 4.05085 46.6889 3.72405 46.1022 3.50619C45.5155 3.26848 44.8783 3.14959 44.1904 3.14959C43.5025 3.14959 42.8551 3.26848 42.2482 3.50619C41.6615 3.72405 41.1456 4.05085 40.7005 4.48666C40.2757 4.90263 39.9418 5.41765 39.699 6.03173C39.4563 6.62605 39.3349 7.29948 39.3349 8.05221Z" />
    <path d="M53.5811 12.6578H55.408C56.1185 11.7664 56.5955 10.7462 56.8391 9.59738C57.0828 8.44844 57.2045 7.15096 57.2045 5.70495V0.356567H69.9323V12.6578H72.1551V19.3433H68.9275V15.8074H56.8087V19.3433H53.5811V12.6578ZM66.4611 12.6578V3.5062H60.493V7.458C60.493 8.40883 60.3611 9.35967 60.0971 10.3104C59.8333 11.2415 59.4679 12.024 59.001 12.6578H66.4611Z" />
    <path d="M72.8594 8.05221C72.8594 6.88351 73.0623 5.81387 73.4684 4.84327C73.8743 3.85283 74.4529 3.00102 75.2039 2.28791C75.955 1.57479 76.8482 1.02015 77.8834 0.623971C78.9187 0.207993 80.0656 0 81.3242 0C82.5624 0 83.6993 0.207993 84.7345 0.623971C85.7901 1.02015 86.6934 1.57479 87.4445 2.28791C88.1955 3.00102 88.7741 3.85283 89.18 4.84327C89.6064 5.81387 89.8195 6.88351 89.8195 8.05221C89.8195 9.221 89.6064 10.3005 89.18 11.291C88.7741 12.2617 88.1955 13.1035 87.4445 13.8166C86.6934 14.5297 85.7901 15.0843 84.7345 15.4806C83.6993 15.8767 82.5624 16.0748 81.3242 16.0748C80.086 16.0748 78.9491 15.8767 77.9139 15.4806C76.8786 15.0843 75.9855 14.5297 75.2344 13.8166C74.4832 13.1035 73.8946 12.2617 73.4684 11.291C73.0623 10.3005 72.8594 9.221 72.8594 8.05221ZM76.4523 8.05221C76.4523 8.74558 76.5639 9.38938 76.7872 9.98361C77.0308 10.5778 77.3658 11.0929 77.7921 11.5287C78.2184 11.9645 78.7258 12.3111 79.3146 12.5687C79.9236 12.8063 80.5934 12.9252 81.3242 12.9252C82.055 12.9252 82.7147 12.8163 83.3034 12.5983C83.9124 12.3606 84.43 12.0338 84.8563 11.6179C85.2826 11.182 85.6176 10.667 85.8612 10.0728C86.1047 9.47847 86.2265 8.80494 86.2265 8.05221C86.2265 7.29948 86.0946 6.62605 85.8307 6.03173C85.5871 5.41765 85.242 4.90263 84.7954 4.48666C84.3488 4.05085 83.8312 3.72405 83.2425 3.50619C82.6538 3.26848 82.0144 3.14959 81.3242 3.14959C80.6341 3.14959 79.9844 3.26848 79.3755 3.50619C78.7868 3.72405 78.2691 4.05085 77.8225 4.48666C77.3963 4.90263 77.0613 5.41765 76.8177 6.03173C76.5741 6.62605 76.4523 7.29948 76.4523 8.05221Z" />
    <path d="M91.9678 0.356567H95.4389V6.62606L102.29 0.356567H106.827L99.123 7.33919L107.101 15.8074H102.656L96.5964 9.44876L95.4389 10.5481V15.8074H91.9678V0.356567Z" />
    <path d="M108.196 0.356567H123.117V3.5062H117.392V15.8074H113.921V3.5062H108.196V0.356567Z" />
    <path d="M123.875 8.05221C123.875 6.88351 124.079 5.81387 124.485 4.84327C124.891 3.85283 125.469 3.00102 126.22 2.28791C126.971 1.57479 127.865 1.02015 128.9 0.623971C129.935 0.207993 131.082 0 132.34 0C133.579 0 134.715 0.207993 135.751 0.623971C136.807 1.02015 137.71 1.57479 138.461 2.28791C139.212 3.00102 139.791 3.85283 140.196 4.84327C140.623 5.81387 140.836 6.88351 140.836 8.05221C140.836 9.221 140.623 10.3005 140.196 11.291C139.791 12.2617 139.212 13.1035 138.461 13.8166C137.71 14.5297 136.807 15.0843 135.751 15.4806C134.715 15.8767 133.579 16.0748 132.34 16.0748C131.102 16.0748 129.965 15.8767 128.931 15.4806C127.895 15.0843 127.002 14.5297 126.251 13.8166C125.5 13.1035 124.911 12.2617 124.485 11.291C124.079 10.3005 123.875 9.221 123.875 8.05221ZM127.469 8.05221C127.469 8.74558 127.581 9.38938 127.804 9.98361C128.047 10.5778 128.382 11.0929 128.809 11.5287C129.235 11.9645 129.743 12.3111 130.331 12.5687C130.94 12.8063 131.61 12.9252 132.34 12.9252C133.071 12.9252 133.732 12.8163 134.32 12.5983C134.929 12.3606 135.446 12.0338 135.873 11.6179C136.299 11.182 136.634 10.667 136.877 10.0728C137.121 9.47847 137.243 8.80494 137.243 8.05221C137.243 7.29948 137.111 6.62605 136.847 6.03173C136.604 5.41765 136.258 4.90263 135.812 4.48666C135.365 4.05085 134.848 3.72405 134.259 3.50619C133.671 3.26848 133.03 3.14959 132.34 3.14959C131.65 3.14959 131.001 3.26848 130.392 3.50619C129.804 3.72405 129.285 4.05085 128.839 4.48666C128.412 4.90263 128.078 5.41765 127.834 6.03173C127.591 6.62605 127.469 7.29948 127.469 8.05221Z" />
    <path d="M142.957 0.356555H146.428V2.0502C147.138 1.39651 147.899 0.891396 148.711 0.534832C149.523 0.178277 150.437 0 151.452 0C152.589 0 153.634 0.207993 154.589 0.623971C155.562 1.02015 156.395 1.5847 157.085 2.31763C157.775 3.03074 158.314 3.88256 158.699 4.87291C159.085 5.84359 159.277 6.90336 159.277 8.05221C159.277 9.24076 159.065 10.3303 158.638 11.3207C158.232 12.2913 157.674 13.1332 156.963 13.8463C156.253 14.5396 155.4 15.0844 154.406 15.4806C153.431 15.8767 152.385 16.0748 151.269 16.0748C150.275 16.0748 149.381 15.9263 148.589 15.6291C147.798 15.3319 147.077 14.916 146.428 14.3812V21.75H142.957V0.356555ZM150.752 12.9252C151.442 12.9252 152.082 12.8163 152.67 12.5983C153.279 12.3805 153.807 12.0635 154.253 11.6476C154.7 11.2118 155.045 10.6967 155.289 10.1024C155.552 9.48835 155.684 8.79507 155.684 8.02258C155.684 7.30945 155.573 6.65577 155.35 6.06145C155.126 5.44738 154.801 4.93236 154.375 4.51639C153.969 4.08057 153.482 3.74381 152.914 3.50619C152.345 3.26848 151.716 3.14959 151.026 3.14959C149.971 3.14959 149.037 3.39717 148.225 3.89243C147.433 4.38761 146.834 4.98193 146.428 5.67521V10.3699C146.834 11.2019 147.413 11.8357 148.164 12.2715C148.915 12.7073 149.778 12.9252 150.752 12.9252Z" />
    <path d="M160.999 8.05221C160.999 6.88351 161.202 5.81387 161.608 4.84327C162.014 3.85283 162.593 3.00102 163.344 2.28791C164.095 1.57479 164.988 1.02015 166.023 0.623971C167.058 0.207993 168.206 0 169.464 0C170.702 0 171.839 0.207993 172.875 0.623971C173.93 1.02015 174.833 1.57479 175.584 2.28791C176.335 3.00102 176.913 3.85283 177.32 4.84327C177.746 5.81387 177.959 6.88351 177.959 8.05221C177.959 9.221 177.746 10.3005 177.32 11.291C176.913 12.2617 176.335 13.1035 175.584 13.8166C174.833 14.5297 173.93 15.0843 172.875 15.4806C171.839 15.8767 170.702 16.0748 169.464 16.0748C168.226 16.0748 167.089 15.8767 166.053 15.4806C165.019 15.0843 164.125 14.5297 163.374 13.8166C162.623 13.1035 162.035 12.2617 161.608 11.291C161.202 10.3005 160.999 9.221 160.999 8.05221ZM164.592 8.05221C164.592 8.74558 164.704 9.38938 164.927 9.98361C165.171 10.5778 165.505 11.0929 165.932 11.5287C166.358 11.9645 166.865 12.3111 167.455 12.5687C168.063 12.8063 168.733 12.9252 169.464 12.9252C170.195 12.9252 170.854 12.8163 171.443 12.5983C172.052 12.3606 172.57 12.0338 172.996 11.6179C173.422 11.182 173.757 10.667 174.001 10.0728C174.245 9.47847 174.367 8.80494 174.367 8.05221C174.367 7.29948 174.234 6.62605 173.97 6.03173C173.726 5.41765 173.382 4.90263 172.935 4.48666C172.488 4.05085 171.971 3.72405 171.382 3.50619C170.793 3.26848 170.154 3.14959 169.464 3.14959C168.774 3.14959 168.124 3.26848 167.516 3.50619C166.926 3.72405 166.409 4.05085 165.963 4.48666C165.536 4.90263 165.201 5.41765 164.958 6.03173C164.714 6.62605 164.592 7.29948 164.592 8.05221Z" />
    <path d="M180.115 0.356567H186.875C189.087 0.356567 190.752 0.663605 191.869 1.27768C192.985 1.89175 193.544 2.95152 193.544 4.45695C193.544 5.17008 193.381 5.77428 193.056 6.26945C192.732 6.76472 192.305 7.21041 191.777 7.60653C192.528 7.88393 193.086 8.34939 193.452 9.00306C193.817 9.63698 194 10.3699 194 11.2019C194 12.747 193.442 13.9058 192.325 14.6783C191.209 15.431 189.636 15.8074 187.605 15.8074H180.115V0.356567ZM183.587 9.41903V12.747H187.271C188.306 12.747 189.087 12.6182 189.616 12.3606C190.143 12.1032 190.407 11.6872 190.407 11.1127C190.407 10.4986 190.153 10.0628 189.646 9.80537C189.158 9.54781 188.397 9.41903 187.363 9.41903H183.587ZM183.587 3.41703V6.47744H187.666C188.377 6.47744 188.936 6.34875 189.341 6.09119C189.748 5.83373 189.95 5.43751 189.95 4.90264C189.95 4.26881 189.677 3.86272 189.128 3.68446C188.6 3.5062 187.819 3.41703 186.783 3.41703H183.587Z" />
</svg>
