<svg width="47" height="42" viewBox="0 0 47 42" fill="none" xmlns="http://www.w3.org/2000/svg">
<path opacity="0.7" fill-rule="evenodd" clip-rule="evenodd" d="M44.3996 17.6418C44.8308 17.6501 45.2542 17.6583 45.6741 17.6222C46.2849 17.5727 46.7523 17.6914 46.9996 18.2775V18.829L41.9497 23.9705C41.885 24.0359 41.8206 24.102 41.7563 24.1681C41.5845 24.3447 41.4124 24.5215 41.2325 24.6852C41.009 24.9016 40.7091 25.0211 40.398 25.0179C40.0869 25.0146 39.7896 24.8889 39.5706 24.6679C37.7571 22.8279 35.9435 20.9806 34.1299 19.1258C33.9024 18.8908 33.6526 18.6015 33.8455 18.2281C33.9212 18.0362 34.0565 17.8738 34.2315 17.7647C34.4065 17.6556 34.6119 17.6057 34.8174 17.6222C35.5321 17.6503 36.248 17.6447 36.9669 17.6391C37.2605 17.6368 37.5546 17.6345 37.8494 17.6345C36.9294 12.6365 32.9775 7.87591 27.2153 6.35746C24.0664 5.53494 20.7338 5.77705 17.7368 7.04607C14.7398 8.3151 12.2467 10.5398 10.6459 13.3735L5.20522 11.2788C8.14566 5.12094 15.1295 -0.109543 23.6887 0.00174388C28.5959 0.0073387 33.3303 1.81398 36.9937 5.0789C40.7849 8.40267 43.0403 12.6044 43.8292 17.6345C44.0211 17.6345 44.2111 17.6382 44.3996 17.6418ZM35.1764 29.4557C35.4806 29.0723 35.6858 29.0006 36.1384 29.191C37.2338 29.6517 38.3424 30.0817 39.4527 30.5124C39.8565 30.669 40.2604 30.8257 40.6641 30.984C40.7727 31.0278 40.8784 31.0775 40.9845 31.1274C41.0161 31.1423 41.0478 31.1572 41.0795 31.1719C37.6 37.1691 30.6013 41.4054 22.9225 41.1383C18.3031 41.027 13.8528 39.3788 10.2753 36.4544C6.60037 33.4867 4.15948 29.703 3.19747 24.9918C2.92972 24.9918 2.6642 24.9885 2.40015 24.9852C1.87645 24.9786 1.35855 24.9721 0.840658 24.9918C0.655664 25.0006 0.473301 24.9453 0.324227 24.8354C0.175153 24.7256 0.0684587 24.5677 0.022081 24.3884C-0.0410951 24.2254 0.0435145 23.9951 0.122296 23.7808C0.139116 23.735 0.15567 23.69 0.170463 23.6465C0.238488 23.5241 0.331111 23.4172 0.442498 23.3324L5.53202 18.1538C6.26157 17.4119 6.8823 17.4119 7.62421 18.1538C9.3504 19.8965 11.0749 21.6359 12.7978 23.372C13.2405 23.8196 13.2726 24.1436 12.9561 24.6382C12.8961 24.7517 12.8042 24.8453 12.6917 24.9073C12.5792 24.9692 12.451 24.9969 12.323 24.9869C11.7062 24.977 11.0883 24.9802 10.4578 24.9835C10.1378 24.9852 9.81448 24.9869 9.48641 24.9869C9.82365 26.1323 10.3171 27.2258 10.9529 28.2364C13.3221 31.9856 16.6805 34.3745 21.0627 35.0521C26.8051 35.94 31.5435 34.0036 35.1764 29.4557Z" fill="#438BFF"/>
</svg>
