<svg width="22" height="21" viewBox="0 0 22 21" xmlns="http://www.w3.org/2000/svg">
<path d="M13.799 7.03071L13.915 7.26714L14.1756 7.30521L20.4194 8.21744C20.4196 8.21747 20.4198 8.21751 20.4201 8.21754C20.5798 8.24173 20.6871 8.38935 20.6632 8.54471L20.6632 8.5447L20.6624 8.55021C20.6535 8.61283 20.6242 8.67101 20.5782 8.71648C20.5781 8.71662 20.5779 8.71676 20.5778 8.7169L16.06 13.1448L15.8731 13.328L15.9172 13.586L16.9847 19.8398L16.9848 19.8401C17.0121 19.9997 16.9054 20.1485 16.7502 20.1754L16.7495 20.1756C16.6876 20.1864 16.6241 20.1759 16.5721 20.1481L16.5699 20.1469L10.9837 17.1944L10.75 17.0709L10.5164 17.1944L4.93018 20.1469L4.92941 20.1473C4.88235 20.1723 4.82948 20.1834 4.77673 20.1796C4.72399 20.1759 4.67311 20.1573 4.62989 20.1257C4.58664 20.0942 4.55272 20.0508 4.53232 20.0003C4.51192 19.9497 4.50596 19.8943 4.51524 19.8404L4.51535 19.8398L5.5829 13.586L5.62695 13.328L5.44002 13.1448L0.921368 8.716L0.921337 8.71597C0.86633 8.66206 0.834371 8.58785 0.833339 8.50947C0.83231 8.4314 0.86207 8.3566 0.915291 8.30127C0.960479 8.25519 1.01746 8.22652 1.07785 8.21785L1.07905 8.21768L7.32448 7.30521L7.58507 7.26714L7.70107 7.03071L10.4917 1.34319C10.4919 1.34288 10.4921 1.34258 10.4922 1.34227C10.5653 1.19648 10.7388 1.14122 10.877 1.20985L10.8776 1.21014C10.9333 1.23769 10.979 1.28334 11.0069 1.34035L11.0071 1.34078L13.799 7.03071Z" stroke="white"/>
</svg>
