<svg width="44" height="44" viewBox="0 0 44 44" fill="none" xmlns="http://www.w3.org/2000/svg">
<path opacity="0.7" fill-rule="evenodd" clip-rule="evenodd" d="M32.5577 0H11.4423C5.12289 0 0 5.12289 0 11.4423V32.5577C0 38.8771 5.12289 44 11.4423 44H32.5577C38.8771 44 44 38.8771 44 32.5577V11.4423C44 5.12289 38.8771 0 32.5577 0ZM19.6493 36.1972C19.1098 36.1718 18.5792 36.0505 18.0823 35.8387C17.7193 35.6963 17.3471 35.5768 16.9519 35.4527C16.6854 35.37 16.4188 35.2873 16.1523 35.1954C15.8724 35.1176 15.6119 34.982 15.3877 34.7973C15.1635 34.6126 14.9805 34.3829 14.8506 34.123C14.7206 33.8632 14.6467 33.579 14.6334 33.2888C14.6202 32.9986 14.668 32.7088 14.7737 32.4382C14.8671 32.1868 14.9349 31.9266 14.9759 31.6616C14.7906 31.4784 14.5958 31.305 14.3923 31.1423C13.2993 30.241 12.3858 29.142 11.6995 27.9027L11.6535 27.8199H11.58C10.8034 28.0451 9.91188 28.2105 9.19502 27.7556C8.47815 27.3007 8.21622 26.3724 8.10133 25.5912C8.04914 25.2557 7.97879 24.9262 7.90502 24.5806C7.88787 24.5003 7.87053 24.4191 7.85319 24.3367C7.78426 24.038 7.71992 23.7347 7.66019 23.4176C7.59303 23.1484 7.58255 22.8681 7.62941 22.5946C7.67626 22.321 7.77942 22.0602 7.93236 21.8287C8.08529 21.5971 8.28467 21.3998 8.51784 21.2494C8.75102 21.0989 9.01291 20.9985 9.28692 20.9546L9.82917 20.8581L10.1325 20.7937V20.6697L10.135 20.6549L10.135 20.6549C10.1716 20.4447 10.222 20.1546 10.3163 19.7506C10.6508 18.5189 11.0905 17.3182 11.6305 16.1617C11.6719 16.0722 11.7072 15.9801 11.7362 15.8859L11.6949 15.8446C11.1572 15.3529 10.546 14.6774 10.5782 13.7951C10.6104 12.9128 11.341 12.2051 11.8879 11.7823C12.2034 11.536 12.5027 11.2611 12.8163 10.9731L12.8759 10.9184C13.0872 10.7162 13.3032 10.5186 13.5238 10.3256C13.7485 10.1086 14.0165 9.94149 14.3103 9.83536C14.6042 9.72924 14.9171 9.68647 15.2286 9.70986C15.4962 9.74483 15.753 9.83728 15.9814 9.98085C16.2099 10.1244 16.4045 10.3157 16.5521 10.5416C16.9243 11.0655 17.1173 11.162 17.9904 10.8403C19.0427 10.4995 20.1318 10.285 21.2347 10.2016L21.8918 10.1188C21.9726 10.1125 22.0526 10.0987 22.1308 10.0775C22.3146 9.33305 22.6271 8.42777 23.4083 8.01879C24.1895 7.60981 25.1177 7.87634 25.9173 8.18422C26.2666 8.32208 26.6296 8.43696 27.011 8.55644C27.2913 8.64375 27.5716 8.73566 27.8473 8.83216C28.1228 8.91058 28.3791 9.04512 28.6001 9.22733C28.821 9.40954 29.0019 9.63549 29.1314 9.89097C29.2609 10.1464 29.3361 10.4259 29.3524 10.7119C29.3686 10.9978 29.3256 11.2841 29.2259 11.5526C29.1367 11.7983 29.072 12.0523 29.0329 12.3108C29.1767 12.4731 29.3301 12.6266 29.4925 12.7703L29.6809 12.9587C30.604 13.9109 31.4564 14.9291 32.2313 16.0054C32.2769 16.0719 32.3293 16.1335 32.3875 16.1892H32.438C32.7531 16.0944 33.0761 16.0283 33.4031 15.9916C33.9083 15.8997 34.4296 16.0066 34.8578 16.2901C35.286 16.5736 35.588 17.0116 35.7007 17.5127C35.8805 18.2801 36.0334 19.061 36.1782 19.8004L36.1782 19.8007C36.2406 20.1194 36.3015 20.4305 36.3624 20.7294C36.4012 20.9498 36.4012 21.1753 36.3624 21.3957C36.3583 21.443 36.3475 21.4894 36.3303 21.5336C36.2291 21.9272 36.016 22.283 35.7166 22.5579C35.4173 22.8328 35.0446 23.0149 34.6438 23.0822C34.3834 23.1307 34.1281 23.203 33.881 23.2982C33.881 23.3198 33.8584 23.4054 33.8289 23.5169C33.8021 23.6189 33.7694 23.7425 33.7431 23.8588L33.6696 24.1713C33.3683 25.2987 32.978 26.4004 32.5024 27.4661L32.3186 27.9256C32.289 27.9979 32.2712 28.049 32.2584 28.0858L32.2583 28.086C32.2532 28.1006 32.2489 28.1128 32.245 28.1232C32.8286 28.6976 33.4444 29.3777 33.4031 30.2325C33.3709 30.9264 32.9435 31.5513 32.0245 32.3233C31.851 32.4658 31.6818 32.6126 31.5105 32.7613C31.3778 32.8765 31.2438 32.9928 31.1054 33.1091C30.9889 33.2138 30.8699 33.3184 30.7516 33.4224L30.7515 33.4225C30.6413 33.5194 30.5317 33.6158 30.4253 33.7111C30.2025 33.9244 29.937 34.088 29.6462 34.191C29.3555 34.2939 29.0462 34.334 28.7388 34.3085C28.4663 34.2677 28.2057 34.1686 27.9749 34.0179C27.7441 33.8672 27.5486 33.6685 27.4016 33.4354C27.011 32.8886 26.8042 32.7875 26.0781 33.1367C24.7779 33.7093 23.361 33.9675 21.9424 33.8903H21.8367V33.9501C21.6621 34.6853 21.3542 35.5768 20.5776 35.9812C20.2903 36.1277 19.9717 36.2018 19.6493 36.1972ZM11.6811 26.3357C11.958 26.3392 12.228 26.4226 12.4587 26.5758C12.6894 26.7291 12.871 26.9457 12.9815 27.1996C13.5769 28.2735 14.3706 29.2247 15.3205 30.0027C16.5383 31.0412 16.6348 31.3813 16.1661 32.8702C16.0098 33.3757 16.1385 33.6238 16.6256 33.7892C16.7911 33.8474 16.9606 33.9016 17.1301 33.9557C17.2149 33.9828 17.2996 34.0098 17.3838 34.0374C17.7836 34.1615 18.1972 34.2947 18.6062 34.451C19.4012 34.7588 19.732 34.7405 19.8699 34.6669C20.0078 34.5934 20.1962 34.3591 20.38 33.5962C20.4401 33.231 20.6391 32.9031 20.9355 32.6812C21.2319 32.4594 21.6025 32.3608 21.9699 32.406C23.1572 32.4747 24.3439 32.2638 25.4348 31.7903C26.7628 31.1607 27.7646 31.4089 28.5964 32.5669C28.629 32.6263 28.6736 32.6782 28.7274 32.7193C28.7812 32.7605 28.843 32.7899 28.9089 32.8058C29.1165 32.7938 29.3119 32.7035 29.4557 32.5531C29.6226 32.4105 29.7843 32.2653 29.9467 32.1194C29.9989 32.0726 30.0511 32.0256 30.1036 31.9787L30.1351 31.9501C30.4288 31.683 30.7356 31.4041 31.0595 31.1423C31.8177 30.522 31.9096 30.2233 31.9142 30.1268C31.9142 29.8603 31.3949 29.3364 31.1973 29.1388C30.9533 28.9066 30.7944 28.5992 30.7461 28.2658C30.6977 27.9325 30.7628 27.5926 30.9308 27.3007L31.1146 26.8411C31.5611 25.8474 31.9269 24.8194 32.2083 23.7669L32.2818 23.4682C32.5805 22.1585 32.8424 21.915 34.29 21.5841C34.63 21.506 34.7495 21.4187 34.8781 21.097C34.8852 21.0467 34.8852 20.9957 34.8781 20.9454C34.6943 19.9666 34.4784 18.8545 34.2302 17.7838C34.2153 17.7139 34.1862 17.6478 34.1448 17.5896C34.1033 17.5314 34.0504 17.4823 33.9893 17.4453C33.9282 17.4082 33.8601 17.3841 33.7894 17.3744C33.7186 17.3646 33.6465 17.3695 33.5777 17.3886C33.3366 17.4157 33.0983 17.4633 32.8654 17.5311C32.5262 17.6477 32.1569 17.6422 31.8213 17.5155C31.4857 17.3888 31.2048 17.1489 31.0273 16.8372C30.2929 15.8204 29.4866 14.8576 28.6148 13.9559L28.4309 13.7721C27.4521 12.8071 27.3786 12.4762 27.806 11.0701C27.8581 10.9821 27.8873 10.8825 27.8909 10.7803C27.8946 10.6781 27.8725 10.5767 27.8268 10.4853C27.7811 10.3938 27.7131 10.3153 27.6292 10.2569C27.5453 10.1985 27.4481 10.1621 27.3465 10.151C27.0845 10.0591 26.818 9.97179 26.5515 9.88908C26.1655 9.7696 25.7657 9.64093 25.3705 9.48929C24.7087 9.23195 24.2768 9.15383 24.0792 9.25493C23.9689 9.31467 23.7529 9.53064 23.5507 10.3532C23.4719 10.6886 23.2818 10.9874 23.0114 11.201C22.7411 11.4146 22.4064 11.5304 22.0619 11.5296L21.4277 11.6675C20.441 11.7398 19.4662 11.928 18.5235 12.2281C17.4712 12.6141 16.3591 12.7795 15.3711 11.4009C15.3409 11.3455 15.2996 11.297 15.2498 11.2582C15.2 11.2195 15.1427 11.1914 15.0816 11.1758C14.8659 11.1887 14.6636 11.2841 14.5164 11.4423C14.305 11.6215 14.1028 11.8099 13.9006 11.9983L13.9006 11.9983L13.8185 12.0739C13.4997 12.3676 13.1715 12.6699 12.8161 12.945C12.3566 13.308 12.0855 13.6388 12.0763 13.864C12.0763 14.0019 12.1774 14.273 12.715 14.7831C12.9893 15.0288 13.1689 15.3628 13.2226 15.7271C13.2763 16.0914 13.2008 16.463 13.0091 16.7774C12.5037 17.849 12.0917 18.9621 11.7776 20.1044C11.6961 20.4304 11.6546 20.6803 11.6233 20.8691L11.6233 20.8691L11.6167 20.9086C11.4421 21.938 11.1113 22.0896 10.1416 22.2872L9.61778 22.3975C9.15825 22.5124 9.02039 22.6962 9.1077 23.1557C9.16284 23.4452 9.22716 23.7346 9.29148 24.0241L9.29149 24.0241L9.29152 24.0242L9.32865 24.1979L9.32866 24.1979C9.4098 24.5764 9.49371 24.9678 9.55345 25.366C9.68671 26.2254 9.87512 26.4597 9.97162 26.5241C10.0681 26.5884 10.3852 26.6389 11.1526 26.4138C11.3245 26.3644 11.5022 26.3382 11.6811 26.3357ZM21.9975 30.4668C21.1018 30.4668 20.2116 30.3257 19.3598 30.0487C17.7668 29.5271 16.3643 28.5444 15.3301 27.2252C14.2959 25.906 13.6764 24.3096 13.5501 22.6381C13.4238 20.9666 13.7963 19.2952 14.6206 17.8356C15.4448 16.3759 16.6837 15.1937 18.1803 14.4387C19.6769 13.6836 21.3639 13.3896 23.0277 13.594C24.6914 13.7984 26.2571 14.4919 27.5265 15.5867C28.7959 16.6815 29.7118 18.1284 30.1583 19.7441C30.6048 21.3598 30.5618 23.0717 30.0347 24.663C29.4747 26.3521 28.3968 27.8219 26.9541 28.8638C25.5113 29.9056 23.7771 30.4665 21.9975 30.4668ZM21.9975 15.0036C20.7085 15.0003 19.4436 15.3532 18.3425 16.0235C17.2414 16.6938 16.3469 17.6553 15.7579 18.8019C15.1689 19.9486 14.9083 21.2357 15.0048 22.5211C15.1012 23.8065 15.5511 25.0403 16.3046 26.0862C17.0582 27.1321 18.0861 27.9493 19.2749 28.4478C20.4637 28.9462 21.7671 29.1064 23.0412 28.9106C24.3154 28.7149 25.5106 28.1708 26.4949 27.3385C27.4793 26.5062 28.2145 25.4181 28.6194 24.1943C28.9686 23.1448 29.0637 22.0275 28.8967 20.9341C28.7298 19.8408 28.3056 18.8027 27.659 17.9053C27.0125 17.008 26.1621 16.277 25.1778 15.7725C24.1935 15.2681 23.1035 15.0045 21.9975 15.0036ZM20.5865 24.4225C21.0178 24.6726 21.508 24.8033 22.0066 24.8008H21.9928C22.5827 24.8008 23.1574 24.6134 23.6339 24.2657C24.1104 23.918 24.4642 23.428 24.6443 22.8662C24.7635 22.5163 24.811 22.146 24.7842 21.7773C24.7574 21.4087 24.6567 21.0492 24.4881 20.7202C24.2608 20.2764 23.9193 19.9012 23.4988 19.6334C23.0782 19.3655 22.5938 19.2147 22.0955 19.1965C21.5972 19.1782 21.1031 19.2933 20.6641 19.5296C20.225 19.766 19.857 20.1153 19.5979 20.5413C19.3389 20.9673 19.1981 21.4547 19.1902 21.9533C19.1823 22.4519 19.3075 22.9435 19.553 23.3775C19.7984 23.8116 20.1552 24.1723 20.5865 24.4225ZM21.2287 20.9213C21.4547 20.7563 21.7268 20.6667 22.0066 20.6651L22.0158 20.6743C22.2576 20.6771 22.4941 20.7452 22.7004 20.8714C22.9067 20.9976 23.075 21.1771 23.1876 21.3911C23.2671 21.5469 23.3149 21.7168 23.3283 21.8911C23.3417 22.0654 23.3204 22.2406 23.2657 22.4067C23.211 22.5767 23.1226 22.7339 23.0057 22.8689C22.8889 23.0039 22.746 23.114 22.5856 23.1925C22.3513 23.3075 22.0881 23.3507 21.8292 23.3165C21.5704 23.2824 21.3274 23.1724 21.1309 23.0005C20.9345 22.8285 20.7932 22.6023 20.725 22.3503C20.6567 22.0983 20.6646 21.8317 20.7475 21.5841C20.8343 21.3182 21.0027 21.0863 21.2287 20.9213Z" fill="url(#paint0_linear_513_814)"/>
<defs>
<linearGradient id="paint0_linear_513_814" x1="22" y1="0" x2="22" y2="51.5" gradientUnits="userSpaceOnUse">
<stop stop-color="white"/>
<stop offset="1" stop-color="#438BFF"/>
</linearGradient>
</defs>
</svg>
