<svg width="45" height="44" viewBox="0 0 45 44" fill="none" xmlns="http://www.w3.org/2000/svg">
<path d="M22.0092 12.5957C19.9203 12.5957 17.8784 13.2151 16.1415 14.3756C14.4047 15.5361 13.051 17.1856 12.2517 19.1155C11.4523 21.0453 11.2431 23.1689 11.6507 25.2176C12.0582 27.2663 13.0641 29.1482 14.5411 30.6252C16.0181 32.1023 17.9 33.1082 19.9487 33.5157C21.9975 33.9232 24.121 33.7141 26.0509 32.9147C27.9807 32.1153 29.6302 30.7616 30.7907 29.0248C31.9512 27.288 32.5706 25.246 32.5706 23.1572C32.5706 20.3561 31.4579 17.6697 29.4773 15.6891C27.4966 13.7084 24.8103 12.5957 22.0092 12.5957ZM26.8032 28.9292C26.7164 29.0131 26.6139 29.0791 26.5016 29.1234C26.3893 29.1676 26.2693 29.1893 26.1486 29.1872C26.028 29.185 25.9089 29.1591 25.7982 29.1109C25.6875 29.0627 25.5874 28.9932 25.5036 28.9063L21.3709 24.6128C21.21 24.446 21.1182 24.2246 21.1138 23.9929L21.0127 17.5642C21.0091 17.3206 21.1023 17.0856 21.272 16.9107C21.4416 16.7359 21.6738 16.6357 21.9173 16.632C22.1609 16.6284 22.396 16.7216 22.5708 16.8913C22.7456 17.0609 22.8459 17.2931 22.8495 17.5366L22.9459 23.5842L26.8491 27.6343C27.0142 27.8124 27.102 28.0486 27.0934 28.2912C27.0848 28.5339 26.9805 28.7633 26.8032 28.9292ZM22.0092 12.5957C19.9203 12.5957 17.8784 13.2151 16.1415 14.3756C14.4047 15.5361 13.051 17.1856 12.2517 19.1155C11.4523 21.0453 11.2431 23.1689 11.6507 25.2176C12.0582 27.2663 13.0641 29.1482 14.5411 30.6252C16.0181 32.1023 17.9 33.1082 19.9487 33.5157C21.9975 33.9232 24.121 33.7141 26.0509 32.9147C27.9807 32.1153 29.6302 30.7616 30.7907 29.0248C31.9512 27.288 32.5706 25.246 32.5706 23.1572C32.5706 20.3561 31.4579 17.6697 29.4773 15.6891C27.4966 13.7084 24.8103 12.5957 22.0092 12.5957ZM26.8032 28.9292C26.7164 29.0131 26.6139 29.0791 26.5016 29.1234C26.3893 29.1676 26.2693 29.1893 26.1486 29.1872C26.028 29.185 25.9089 29.1591 25.7982 29.1109C25.6875 29.0627 25.5874 28.9932 25.5036 28.9063L21.3709 24.6128C21.21 24.446 21.1182 24.2246 21.1138 23.9929L21.0127 17.5642C21.0091 17.3206 21.1023 17.0856 21.272 16.9107C21.4416 16.7359 21.6738 16.6357 21.9173 16.632C22.1609 16.6284 22.396 16.7216 22.5708 16.8913C22.7456 17.0609 22.8459 17.2931 22.8495 17.5366L22.9459 23.5842L26.8491 27.6343C27.0142 27.8124 27.102 28.0486 27.0934 28.2912C27.0848 28.5339 26.9805 28.7633 26.8032 28.9292ZM32.5569 9.22532e-07H11.4339C9.93263 -0.000602255 8.44591 0.294581 7.05871 0.868689C5.67151 1.4428 4.41101 2.28458 3.34921 3.34595C2.28741 4.40733 1.44512 5.66749 0.870454 7.05446C0.295788 8.44143 8.20612e-06 9.92803 8.32729e-06 11.4293V32.5523C-0.0018075 34.0569 0.293361 35.5471 0.868593 36.9374C1.44383 38.3277 2.28781 39.5908 3.35216 40.6543C4.41652 41.7178 5.68031 42.5608 7.07109 43.1349C8.46187 43.709 9.95228 44.003 11.4569 44H32.5798C34.0814 44 35.5682 43.7042 36.9554 43.1296C38.3426 42.555 39.6031 41.7128 40.6648 40.6511C41.7266 39.5893 42.5688 38.3288 43.1434 36.9416C43.718 35.5544 44.0138 34.0676 44.0138 32.566V11.4431C44.0132 9.94026 43.7162 8.45228 43.1398 7.06434C42.5634 5.6764 41.719 4.41575 40.6548 3.35457C39.5907 2.29338 38.3276 1.45249 36.9381 0.880018C35.5485 0.307549 34.0597 0.0147453 32.5569 0.0183682V9.22532e-07ZM15.6907 6.65372L28.3277 6.69046C28.5713 6.69046 28.8049 6.78722 28.9771 6.95945C29.1493 7.13168 29.2461 7.36527 29.2461 7.60885C29.2461 7.85242 29.1493 8.08601 28.9771 8.25825C28.8049 8.43048 28.5713 8.52723 28.3277 8.52723L15.6907 8.4905C15.4471 8.4905 15.2135 8.39374 15.0413 8.22151C14.869 8.04928 14.7723 7.81568 14.7723 7.57211C14.7723 7.32854 14.869 7.09494 15.0413 6.92271C15.2135 6.75048 15.4471 6.65372 15.6907 6.65372ZM22.0092 35.5416C19.557 35.5416 17.16 34.8145 15.1211 33.4521C13.0822 32.0898 11.4931 30.1535 10.5547 27.888C9.61631 25.6225 9.37078 23.1296 9.84917 20.7246C10.3276 18.3196 11.5084 16.1104 13.2423 14.3765C14.9762 12.6426 17.1854 11.4618 19.5904 10.9834C21.9954 10.505 24.4883 10.7505 26.7538 11.6889C29.0193 12.6273 30.9556 14.2164 32.3179 16.2553C33.6803 18.2942 34.4074 20.6912 34.4074 23.1434C34.4074 26.4316 33.1012 29.5851 30.7761 31.9103C28.4509 34.2354 25.2974 35.5416 22.0092 35.5416ZM22.0092 12.5819C19.9203 12.5819 17.8784 13.2013 16.1415 14.3618C14.4047 15.5224 13.051 17.1718 12.2517 19.1017C11.4523 21.0315 11.2431 23.1551 11.6507 25.2038C12.0582 27.2525 13.0641 29.1344 14.5411 30.6115C16.0181 32.0885 17.9 33.0944 19.9487 33.5019C21.9975 33.9094 24.121 33.7003 26.0509 32.9009C27.9807 32.1015 29.6302 30.7478 30.7907 29.011C31.9512 27.2742 32.5706 25.2322 32.5706 23.1434C32.567 20.3447 31.4527 17.6619 29.4724 15.6842C27.4921 13.7065 24.8079 12.5957 22.0092 12.5957V12.5819ZM26.8032 28.9292C26.7164 29.0131 26.6139 29.0791 26.5016 29.1234C26.3893 29.1676 26.2693 29.1893 26.1486 29.1872C26.028 29.185 25.9089 29.1591 25.7982 29.1109C25.6875 29.0627 25.5874 28.9932 25.5036 28.9063L21.3709 24.6128C21.21 24.446 21.1182 24.2246 21.1138 23.9929L21.0127 17.5642C21.0091 17.3206 21.1023 17.0856 21.272 16.9107C21.4416 16.7359 21.6738 16.6357 21.9173 16.632C22.1609 16.6284 22.396 16.7216 22.5708 16.8913C22.7456 17.0609 22.8459 17.2931 22.8495 17.5366L22.9459 23.5842L26.8491 27.6343C27.0142 27.8124 27.102 28.0486 27.0934 28.2912C27.0848 28.5339 26.9805 28.7633 26.8032 28.9292Z" fill="url(#paint0_linear_513_818)" fill-opacity="0.7"/>
<defs>
<linearGradient id="paint0_linear_513_818" x1="22.0069" y1="-2.05098e-10" x2="22" y2="52.5" gradientUnits="userSpaceOnUse">
<stop stop-color="white"/>
<stop offset="1" stop-color="#438BFF"/>
</linearGradient>
</defs>
</svg>
