<svg width="43" height="44" viewBox="0 0 43 44" fill="none" xmlns="http://www.w3.org/2000/svg">
    <path opacity="0.7" fill-rule="evenodd" clip-rule="evenodd" d="M0 19.9701H10.4318L14.0412 12.261C14.2057 11.9103 14.4646 11.6124 14.7888 11.4005C15.1131 11.1886 15.49 11.0712 15.8772 11.0614C16.2606 11.0428 16.6416 11.1304 16.9784 11.3145C17.3152 11.4985 17.5948 11.7719 17.7862 12.1046L26.0586 27.7523L30.2314 20.45C30.4152 20.1316 30.6799 19.8674 30.9986 19.6843C31.3174 19.5011 31.6789 19.4054 32.0465 19.4068H42.9581C42.4189 14.0396 39.8874 9.06937 35.8633 5.47702C31.8392 1.88468 26.6147 -0.0688745 21.2209 0.00185559C15.8271 0.0725857 10.6557 2.16246 6.72716 5.85909C2.79864 9.55572 0.398369 14.5906 0 19.9701ZM36.1486 37.4153C40.0611 33.8065 42.5014 28.8788 43.0002 23.5795H33.2256L27.7593 33.1455C27.5755 33.4639 27.3108 33.728 26.992 33.9112C26.6733 34.0944 26.3118 34.1901 25.9442 34.1887C25.5721 34.182 25.2085 34.076 24.8912 33.8816C24.5739 33.6872 24.3143 33.4114 24.1395 33.0829L16.0444 17.8212L13.6555 22.9432C13.4871 23.3018 13.2202 23.605 12.8858 23.8175C12.5514 24.0299 12.1635 24.1428 11.7673 24.1428H0.104597C0.74238 29.4272 3.3112 34.2892 7.31711 37.794C11.323 41.2987 16.4832 43.1989 21.8054 43.129C27.1276 43.0591 32.2361 41.0241 36.1486 37.4153Z" fill="url(#paint0_linear_279_768)"/>
    <defs>
        <linearGradient id="paint0_linear_279_768" x1="21.5" y1="-3.27584e-08" x2="22.6025" y2="56.23" gradientUnits="userSpaceOnUse">
            <stop stop-color="white"/>
            <stop offset="1" stop-color="#438BFF"/>
        </linearGradient>
    </defs>
</svg>
