<svg width="146" height="22" viewBox="0 0 146 22" xmlns="http://www.w3.org/2000/svg">
<path d="M8.99652 17.8872H12.184V0H7.5401C2.87123 0 0.424443 2.33841 0.424443 5.78918C0.424443 8.54169 1.76435 10.1656 4.16953 11.8382L0 17.8872H3.4538L8.0977 11.1156L6.49148 10.06C4.53571 8.77715 3.58696 7.77034 3.58696 5.61056C3.58696 3.70248 4.96016 2.4196 7.57339 2.4196H8.99652V17.8872ZM70.5407 18.1389C71.9971 18.1389 73.0208 17.8872 73.7865 17.3432V14.8505C72.9958 15.3864 72.0471 15.7193 70.7321 15.7193C68.4851 15.7193 67.5613 14.0223 67.5613 11.351C67.5613 8.54169 68.7015 7.10454 70.7571 7.10454C71.9722 7.10454 73.154 7.51051 73.7865 7.90025V5.30202C73.129 4.93664 71.9722 4.68494 70.4159 4.68494C66.4045 4.68494 64.3156 7.48615 64.3156 11.4241C64.3156 15.7518 66.3462 18.1389 70.5407 18.1389ZM50.9165 17.0103V14.5095C49.9428 15.1591 48.3032 15.7193 46.7719 15.7193C44.4749 15.7193 43.6094 14.6719 43.4763 12.504H51.0496V10.8882C51.0496 6.38191 49.019 4.68494 45.8731 4.68494C42.0531 4.68494 40.2305 7.53487 40.2305 11.4485C40.2305 15.9548 42.5025 18.1389 46.5139 18.1389C48.5113 18.1389 49.9927 17.6274 50.9165 17.0103ZM60.945 17.8872H64.4987L59.4636 11.01L63.8994 4.93664H60.7286L56.3011 11.01V4.93664H53.1552V17.8872H56.3011V11.6271L60.945 17.8872ZM39.4649 15.4676H38.0667V4.93664H28.912V6.04901C28.912 9.20748 28.704 13.2997 27.5971 15.4676H26.6151V20.8427H29.5196V17.8872H36.5603V20.8427H39.4649V15.4676ZM22.1626 4.93664V10.06H17.9681V4.93664H14.8222V17.8872H17.9681V12.4796H22.1626V17.8872H25.3001V4.93664H22.1626ZM45.8232 7.10454C47.3795 7.10454 47.8538 8.36306 47.8538 9.98695V10.2387H43.4763C43.5595 8.18443 44.3168 7.10454 45.8232 7.10454ZM34.9291 15.4676H30.4933C31.3672 13.5108 31.6085 9.98695 31.6085 7.74598V7.35624H34.9291V15.4676ZM90.1733 17.8872H93.8934L87.377 8.49297L93.2859 0H90.0401L84.3642 8.23315V0H81.1768V17.8872H84.3642V9.49166L90.1733 17.8872ZM104.604 9.05321C104.604 5.9191 102.965 4.73365 99.6442 4.73365C97.5636 4.73365 95.9241 5.37509 94.9753 5.9191V8.46861C95.8159 7.84341 97.6635 7.17761 99.278 7.17761C100.776 7.17761 101.467 7.68914 101.467 9.08569V9.8002H100.959C96.1571 9.8002 94.0266 11.351 94.0266 13.9736C94.0266 16.5962 95.6578 18.0658 98.0879 18.0658C99.9355 18.0658 100.726 17.4731 101.334 16.856H101.467C101.492 17.1889 101.6 17.6274 101.7 17.8872H104.762C104.654 16.8317 104.604 15.7761 104.604 14.7206V9.05321ZM101.467 14.7937C101.067 15.362 100.327 15.8249 99.2197 15.8249C97.9048 15.8249 97.239 15.1022 97.239 13.998C97.239 12.5283 98.3209 11.9925 101.017 11.9925H101.467V14.7937ZM110.039 4.93664H107.134V21.614H110.272V16.3689C111.071 17.5218 112.228 18.1389 113.576 18.1389C116.63 18.1389 118.744 15.7518 118.744 11.3997C118.744 7.07206 116.688 4.68494 113.734 4.68494C112.253 4.68494 111.038 5.35073 110.197 6.60925L110.039 4.93664ZM112.785 15.7193C111.121 15.7193 110.272 14.4121 110.272 11.4241C110.272 8.41177 111.171 7.10454 112.943 7.10454C114.658 7.10454 115.498 8.41177 115.498 11.3997C115.498 14.4121 114.6 15.7193 112.785 15.7193ZM129.796 7.35624V4.93664H119.268V7.35624H122.964V17.8872H126.101V7.35624H129.796ZM131.644 4.93664V17.8872H136.421C139.509 17.8872 141.697 16.3445 141.697 13.2997C141.697 10.4173 139.742 8.89894 136.471 8.89894H134.781V4.93664H131.644ZM142.854 4.93664V17.8872H146V4.93664H142.854ZM136.238 15.4676H134.781V11.3185H136.313C137.661 11.3185 138.452 11.9113 138.452 13.4052C138.452 14.8992 137.578 15.4676 136.238 15.4676Z" />
</svg>
