<?xml version="1.0" encoding="utf-8"?><svg viewBox="0 0 400 65" xmlns="http://www.w3.org/2000/svg" xmlns:xlink="http://www.w3.org/1999/xlink"><style>:root>svg{display:none}:root>svg:target{display:block}</style><svg viewBox="0 0 69 20" id="2gis" xmlns="http://www.w3.org/2000/svg"><path fill-rule="evenodd" clip-rule="evenodd" d="M8.306 0C3.827 0 .467 2.779.496 7.604H4.66a3.57 3.57 0 01.197-1.476 3.52 3.52 0 01.78-1.26 3.44 3.44 0 011.224-.816c.46-.18.953-.257 1.445-.226 1.896 0 3.102 1.287 3.102 2.924 0 1.638-1.321 2.633-3.446 3.686a52.7 52.7 0 01-7.466 3.041v5.558h15.506v-3.803H6.124c1.442-.585 2.843-1.28 4.106-1.9 3.36-1.639 5.341-3.481 5.341-6.786C15.56 2.545 12.631 0 8.306 0zM22.32 4.095h8.04V.315h-12.06v18.72h4.02V4.095zM36.676.292h-4.02v18.743h4.02l7.466-11.963v11.963h4.02V.315h-4.02l-7.466 11.963V.292zm31.672 11.7h-4.164a5.06 5.06 0 01-1.842 2.567 4.91 4.91 0 01-2.982.942c-3.302 0-5.455-2.895-5.455-5.85 0-2.953 2.096-5.849 5.57-5.849a4.747 4.747 0 012.938.944 4.896 4.896 0 011.771 2.566h4.164C67.745 3.13 64.5 0 59.36 0c-5.685 0-9.475 4.065-9.475 9.652 0 5.586 3.79 9.652 9.475 9.652 5.129 0 8.374-3.071 8.977-7.289l.011-.023z"/></svg><svg fill="none" viewBox="0 0 32 32" id="arrow-slider" xmlns="http://www.w3.org/2000/svg"><path stroke="#438BFF" stroke-width="2" d="M1 1h30v30H1z"/><path d="M18.5 21l-5-5 5-5" stroke="#438BFF" stroke-width="2"/></svg><svg fill="none" viewBox="0 0 32 32" id="arrow-slider-hover" xmlns="http://www.w3.org/2000/svg"><path fill="#438BFF" d="M0 0h32v32H0z"/><path d="M18.5 21l-5-5 5-5" stroke="#04041C" stroke-width="2"/></svg><svg fill="none" viewBox="0 0 32 32" id="arrow-slider-lightblue" xmlns="http://www.w3.org/2000/svg"><path stroke="#54E6DF" stroke-width="2" d="M1 1h30v30H1z"/><path d="M18.5 21l-5-5 5-5" stroke="#54E6DF" stroke-width="2"/></svg><svg fill="none" viewBox="0 0 32 32" id="arrow-slider-lightblue-hover" xmlns="http://www.w3.org/2000/svg"><path fill="#54E6DF" d="M0 0h32v32H0z"/><path d="M18.5 21l-5-5 5-5" stroke="#04041C" stroke-width="2"/></svg><svg viewBox="0 0 400 65" id="biodent" xmlns="http://www.w3.org/2000/svg"><path d="M150.401 57.395s.167-.068.235-.135c-.068.034-.168.067-.235.135zM152.214 56.388s.101-.068.134-.101c-.033 0-.1.067-.134.1zM151.778 56.657s.134-.068.201-.135c-.067.034-.134.067-.201.135zM152.684 56.086s.033 0 .067-.034c0 0-.034 0-.067.034zM151.308 56.924s.168-.1.235-.134c-.067.034-.168.1-.235.134z"/><path d="M143.151 64.208c7.552 0 15.776-2.416 21.985-9.197 6.578-7.216 8.29-16.547 8.29-23.562 0-4.631-.772-8.961-2.316-12.922C169.365 14.097 162.249 0 143.185 0c-7.149 0-15.372 2.249-21.75 8.794-8.256 8.424-8.592 19.131-8.592 22.656 0 7.652 2.182 16.547 8.055 23.226 6.747 7.652 15.574 9.532 22.287 9.532h-.034zm0-59.006c11.479 0 18.796 10.472 18.796 26.214 0 17.688-7.485 27.556-18.796 27.556-14.298 0-18.896-15.104-18.896-27.556 0-14.567 6.679-26.214 18.896-26.214z"/><path d="M149.53 57.797s.1-.033.167-.067c-.067 0-.1.034-.167.067zM149.965 57.595l.201-.1c-.067 0-.134.067-.201.1zM150.871 57.16s.168-.101.269-.135c-.101.034-.168.1-.269.134zM172.251 21.917s-.067-.235-.1-.336c0 .101.067.236.1.336zM35.544 38.128s0-.067-.033-.1c0 0 0 .067.033.1z"/><path d="M39.203 29.805c-3.625-2.014-8.056-2.283-12.318-2.283H16.95V6.075c0-.034 13.258 0 13.258 0 3.658.235 5.739.705 7.216 1.644 1.443.94 2.383 2.35 3.29 5.069h1.342c0-.57.503-10.036.503-11.077l-.302-.302H0v1.343C5.001 4.43 6.243 6.377 6.713 13.157V62.53l.302.302h21.078c4.867 0 8.592-.537 12.117-3.155 1.376-1.04 7.686-5.37 7.686-15.272 0-7.686-3.96-11.949-8.66-14.567l-.033-.033zM33.06 54.978c-2.08 2.416-4.9 3.49-9.23 3.49h-6.947V31.886h6.377c4.296 0 6.914.67 9.062 2.35 2.92 2.282 4.397 5.705 4.397 10.203 0 4.128-1.242 7.72-3.725 10.606l.066-.067zM232.666 31.416c0-6.814-.974-12.15-3.021-16.245-2.014-4.061-4.901-6.646-7.485-8.66-2.417-1.88-5.236-3.289-8.357-4.195-2.887-.84-6.143-1.275-9.7-1.275-2.149 0-4.33.1-6.445.167-2.014.067-3.893.168-5.672.168h-15.742V2.72c2.719.906 4.129 1.846 5.069 3.289.939 1.443 1.409 3.524 1.644 7.216v49.272l.302.302h9.264c1.947 0 4.095.101 6.176.168 1.98.067 3.826.168 5.437.168 2.752 0 5.437-.403 8.055-1.208a29.826 29.826 0 007.25-3.323c6.042-3.726 13.258-11.479 13.258-27.22l-.033.033zm-16.615 19.836c-3.893 4.834-7.887 6.881-13.425 6.881h-9.499V6.075h9.566c5.739 0 10.572 2.215 13.325 6.042 3.625 5.068 5.135 10.673 5.135 19.333 0 9.196-1.645 15.473-5.135 19.802h.033zM330.607 62.53l.302.302h16.615v-1.376c-5.001-1.679-6.277-3.625-6.713-10.439V1.711l-.302-.302h-16.614v1.343c5.001 1.678 6.276 3.658 6.712 10.472v15.977H303.32V1.71l-.302-.302h-16.614v1.343c2.718.906 4.128 1.846 5.068 3.29.939 1.443 1.409 3.523 1.644 7.216V62.53l.302.302h16.615v-1.343c-5.001-1.678-6.243-3.625-6.713-10.405V33.9h27.287v28.664-.033zM279.992 58.737s1.846-3.659 2.316-9.297h-1.913c0 1.745-1.007 3.927-2.584 5.639-1.813 1.98-4.028 3.054-6.277 3.054h-18.762V33.665h17.856c3.793 0 5.202-1.276 5.202-4.666h-23.058V6.075h13.795c6.847.47 8.693 2.316 10.338 7.216h1.342c0-.57.537-10.371.571-11.613l-.302-.302H235.856v1.343c2.718.906 4.128 1.846 5.068 3.289.94 1.443 1.41 3.524 1.645 7.216v49.272l.301.302h35.243s1.342-2.685 1.947-4.095l-.068.034zM399.312 1.41h-49.507l-.302.301c0 2.35.504 10.54.537 11.043h1.343c.872-2.618 1.812-4.061 3.188-5.001 1.41-.94 3.39-1.443 6.847-1.678h8.022V50.95c-.235 3.658-.705 5.74-1.644 7.216-.94 1.444-2.35 2.383-5.069 3.29v1.342h23.663v-1.342c-4.766-1.612-6.075-3.458-6.579-9.331a20.63 20.63 0 01-.1-2.081V6.074h7.887c3.525.236 5.505.74 6.948 1.679 1.41.94 2.316 2.383 3.222 5.001h1.343c.033-.436.537-6.813.537-11.043l-.302-.302h-.034zM93.812 62.496l.302.302h16.615v-1.342c-5.001-1.678-6.243-3.625-6.713-10.305V1.712l-.302-.301h-9.6l-.335.235L68.37 50.748h-.202s.034-43.164.034-49.07l-.302-.303H51.253v1.343c2.719.906 4.128 1.846 5.068 3.289.94 1.443 1.41 3.524 1.645 7.115v49.34l.302.302h9.6l.335-.235 25.34-49.004h.202v48.97h.067z"/></svg><svg fill="none" viewBox="0 0 48 34" id="card" xmlns="http://www.w3.org/2000/svg"><path opacity=".7" fill-rule="evenodd" clip-rule="evenodd" d="M0 5a5 5 0 015-5h37.357a5 5 0 015 5v24a5 5 0 01-5 5H5a5 5 0 01-5-5V5zm25.5 19.286h15.786v4.857H25.5v-4.857zm15.786-13.357H6.07v3.642h35.215V10.93z" fill="#438BFF"/></svg><svg fill="none" viewBox="0 0 11 7" id="check" xmlns="http://www.w3.org/2000/svg"><path d="M1.5 2.628L5 5.372l4.5-3.744" stroke="#fff" stroke-width="2"/></svg><svg fill="none" viewBox="0 0 25 25" id="cross" xmlns="http://www.w3.org/2000/svg"><path d="M1 24L24 1M1 1l23 23" stroke="#fff" stroke-width="2"/></svg><svg fill="none" viewBox="0 0 16 16" id="cross-blue" xmlns="http://www.w3.org/2000/svg"><path d="M1 1l14 14M15 1L1 15" stroke="#438BFF" stroke-width="2"/></svg><svg fill="none" viewBox="0 0 46 33" id="crown" xmlns="http://www.w3.org/2000/svg"><path opacity=".7" d="M23.006 32.998H3.18c-2.172 0-3.178-1.006-3.18-3.206V3.153C0 1.181 1.136-.133 2.824.073a3.715 3.715 0 011.954.997c2.007 1.893 3.899 3.88 5.834 5.828 1.495 1.51 2.943 1.51 4.438.015 1.944-1.946 3.868-3.904 5.803-5.852 1.395-1.402 2.87-1.413 4.26-.02 1.922 1.924 3.826 3.86 5.747 5.793 1.578 1.589 2.99 1.6 4.56.029 1.955-1.972 3.895-3.944 5.865-5.916 1.277-1.267 3.058-1.275 4.05.05.393.548.613 1.202.63 1.878.04 9.097.045 18.195.018 27.294 0 1.753-1.125 2.813-2.902 2.815-6.694.015-13.386.02-20.075.014z" fill="#438BFF"/></svg><svg fill="none" viewBox="0 0 31 24" id="email" xmlns="http://www.w3.org/2000/svg"><mask id="ala" style="mask-type:alpha" maskUnits="userSpaceOnUse" x="0" y="0" width="31" height="24"><path fill="#D9D9D9" d="M0 0h31v24H0z"/></mask><g mask="url(#ala)" stroke="#EFEFEF" stroke-width="1.5"><path d="M6.3 3h18.4C25.965 3 27 4.035 27 5.3v13.8c0 1.265-1.035 2.3-2.3 2.3H6.3A2.307 2.307 0 014 19.1V5.3C4 4.035 5.035 3 6.3 3z"/><path d="M27 5.3l-10.353 7.247a2 2 0 01-2.294 0L4 5.3" stroke-linecap="round"/></g></svg><svg viewBox="0 0 146 27" id="google-maps" xmlns="http://www.w3.org/2000/svg"><path fill-rule="evenodd" clip-rule="evenodd" d="M74.002 13.924l5.986-2.487c-.332-.838-1.316-1.417-2.487-1.417-1.496-.007-3.571 1.316-3.499 3.904zm7.027 2.408l2.285 1.518c-.738 1.091-2.509 2.971-5.581 2.971-3.803 0-6.55-2.942-6.55-6.694 0-3.984 2.768-6.695 6.224-6.695 3.174.108 5.148 2.154 6.037 5.017l-8.965 3.702c.687 1.345 1.75 2.031 3.246 2.031 1.49 0 2.53-.737 3.29-1.85m-14.532 4.084h2.943V.752h-2.943v19.664zm-4.8-6.268c0-2.357-1.576-4.084-3.579-4.084-2.024 0-3.73 1.727-3.73 4.084 0 2.335 1.699 4.034 3.73 4.034 2.01 0 3.579-1.698 3.579-4.034zm2.588-6.311v12.001c0 4.945-2.913 6.977-6.362 6.977-3.246 0-5.198-2.184-5.935-3.955l2.559-1.063c.455 1.092 1.576 2.386 3.376 2.386 3.29-.374 3.579-2.502 3.579-4.895h-.109c-.658.81-1.93 1.526-3.528 1.526-3.347 0-6.42-2.913-6.42-6.673 0-3.781 3.066-6.723 6.42-6.723 1.598 0 2.87.708 3.528 1.496h.101V7.822c0-.007 2.791-.007 2.791-.007v.022zm-32.1 6.29c0-2.408-1.72-4.056-3.708-4.056-1.995 0-3.709 1.648-3.709 4.056 0 2.385 1.72 4.055 3.709 4.055 1.988 0 3.709-1.677 3.709-4.055zm2.892 0c0 3.853-2.964 6.694-6.6 6.694-3.637 0-6.6-2.841-6.6-6.694 0-3.883 2.963-6.695 6.6-6.695 3.636 0 6.6 2.812 6.6 6.695zm11.93 0c0-2.408-1.721-4.056-3.71-4.056-1.995 0-3.708 1.648-3.708 4.056 0 2.385 1.72 4.055 3.709 4.055 1.988 0 3.708-1.677 3.708-4.055zm2.891 0c0 3.853-2.964 6.694-6.6 6.694-3.637 0-6.601-2.841-6.601-6.694 0-3.883 2.964-6.695 6.6-6.695 3.637 0 6.601 2.812 6.601 6.695zM10.555 20.82C4.83 20.821 0 16.151 0 10.411 0 4.678 4.822 0 10.555 0c3.174 0 5.43 1.243 7.129 2.87L15.68 4.873C14.466 3.73 12.818 2.84 10.555 2.84c-4.186 0-7.446 3.376-7.446 7.519 0 4.186 3.275 7.519 7.446 7.519 2.711 0 4.258-1.092 5.249-2.082.81-.81 1.345-1.981 1.547-3.579h-6.796V9.377h9.543c.102.506.152 1.113.152 1.771 0 2.133-.585 4.772-2.458 6.644-1.822 1.916-4.157 2.935-7.23 2.935"/><path d="M90.351 20.267V2.786h2.258l6.071 10.647h.091l6.072-10.647h2.257v17.481h-2.256l.091-13.301h-.091l-5.462 9.58H98.07l-5.46-9.58h-.092c.166 4.424.091 8.878.091 13.301h-2.258zm23.797.306c-1.281 0-2.319-.367-3.173-1.099-.854-.732-1.281-1.708-1.281-2.899 0-1.312.518-2.319 1.525-3.05 1.007-.733 2.258-1.1 3.722-1.1 1.312 0 2.41.245 3.234.733-.022-2.537-1.775-3.234-3.142-3.234-1.291.061-2.41.601-2.868 1.74l-2.044-.886c.274-.701.824-1.373 1.647-1.983.824-.61 1.892-.915 3.234-.915 1.526 0 2.807.458 3.814 1.342 1.007.885 1.525 2.167 1.525 3.784v7.23h-2.135V18.59c-.998 1.25-2.346 1.955-4.058 1.983zm4.027-5.553c-1.315-1-4.058-1.126-5.339-.092-1.007.977-1.113 2.285-.061 3.051 2.545 1.633 5.492-.909 5.4-2.96zm10.922 5.553c-.915 0-1.739-.183-2.44-.58-.702-.397-1.251-.885-1.617-1.465h-.122l.091 1.648v5.278h-2.227V8.216h2.136v1.648h.091c.366-.58.885-1.068 1.617-1.465.732-.396 1.556-.58 2.441-.58 1.556 0 2.868.611 3.996 1.831 1.129 1.22 1.678 2.746 1.678 4.546 0 1.8-.549 3.326-1.678 4.546-1.098 1.22-2.44 1.83-3.966 1.83zm-.366-2.075c1.038 0 1.922-.397 2.685-1.19.763-.793 1.129-1.83 1.129-3.142 0-1.312-.366-2.35-1.129-3.143-.763-.793-1.647-1.19-2.685-1.19-1.068 0-1.952.397-2.685 1.16-.732.793-1.098 1.83-1.098 3.142 0 1.312.366 2.38 1.098 3.143.733.854 1.617 1.22 2.685 1.22zm12.57 2.075c-1.342 0-2.441-.336-3.295-.977-.885-.64-1.495-1.464-1.922-2.44l2.013-.824c.641 1.495 1.709 2.257 3.234 2.257.702 0 1.282-.151 1.709-.457.458-.305.671-.702.671-1.22 0-.794-.549-1.312-1.647-1.587l-2.411-.58c-.762-.183-1.495-.58-2.166-1.098-.671-.519-1.037-1.281-1.037-2.197 0-1.067.458-1.922 1.403-2.562.946-.672 2.044-.977 3.326-.977 1.068 0 2.013.244 2.837.733.824.488 1.434 1.159 1.77 2.074l-1.953.793c-.427-1.067-1.342-1.586-2.746-1.586-.671 0-1.22.152-1.677.427-.457.275-.671.64-.671 1.129 0 .671.519 1.16 1.586 1.403l2.38.55c1.129.274 1.953.701 2.502 1.342.549.64.793 1.342.793 2.135 0 1.068-.427 1.983-1.312 2.685-.854.61-1.983.977-3.386.977h-.001z"/></svg><svg fill="none" viewBox="0 0 37 43" id="guard" xmlns="http://www.w3.org/2000/svg"><path opacity=".7" d="M34.78 6.134a22.068 22.068 0 01-2.571-.189A29.696 29.696 0 0119.503.535 1.682 1.682 0 0018.278 0a1.666 1.666 0 00-1.225.536c-4.671 3.332-9.716 5.487-15.497 5.61a1.459 1.459 0 00-1.143.451 1.491 1.491 0 00-.407 1.17c0 5.487 0 10.975.143 16.462.068 2.393.669 4.74 1.757 6.867a15.909 15.909 0 004.53 5.418 48.898 48.898 0 0011.21 6.365c.421.161.887.161 1.308 0a53.1 53.1 0 0010.43-5.81 16.313 16.313 0 005.01-5.587 16.506 16.506 0 002.002-7.264c.143-2.888.154-13.763.154-16.307-.011-1.188-.56-1.688-1.77-1.777zm-6.363 11.741l-9.408 10.286a2.197 2.197 0 01-1.56.711 2.186 2.186 0 01-1.55-.633l-7.683-7.576a2.219 2.219 0 01-.734-1.585 2.243 2.243 0 01.629-1.63 2.196 2.196 0 011.602-.664 2.179 2.179 0 011.58.713l6.034 5.977 7.859-8.598a2.184 2.184 0 013.064-.083 2.236 2.236 0 01.167 3.093v-.01z" fill="url(#anpaint0_linear_279_771)"/><defs><linearGradient id="anpaint0_linear_279_771" x1="18.275" y1="0" x2="18.275" y2="56.438" gradientUnits="userSpaceOnUse"><stop stop-color="#fff"/><stop offset="1" stop-color="#438BFF"/></linearGradient></defs></svg><svg fill="none" viewBox="0 0 47 36" id="heart" xmlns="http://www.w3.org/2000/svg"><path opacity=".7" d="M38.504.345c-8.06-1.86-13.67 4.34-15.014 5.968C22.147 4.685 16.536-1.516 8.476.345c-8.613 1.937-11.22 13.72-5.215 19.068C9.978 25.38 23.727 36 23.727 36s13.354-10.542 20.071-16.587c5.927-5.349 3.32-17.13-5.294-19.068z" fill="url(#aopaint0_linear_279_777)"/><defs><linearGradient id="aopaint0_linear_279_777" x1="23.5" y1="0" x2="23.118" y2="49.091" gradientUnits="userSpaceOnUse"><stop stop-color="#fff"/><stop offset="1" stop-color="#438BFF"/></linearGradient></defs></svg><svg fill="none" viewBox="0 0 37 46" id="human" xmlns="http://www.w3.org/2000/svg"><path fill-rule="evenodd" clip-rule="evenodd" d="M24.096 1.843A11 11 0 0017.982 0 10.968 10.968 0 007 11.023a11 11 0 1017.096-9.18zM18.303 26a18.333 18.333 0 0118.288 20H.076c-.05-.54-.075-1.083-.076-1.629A18.28 18.28 0 0118.303 26z" fill="url(#appaint0_linear_279_772)" fill-opacity=".7"/><defs><linearGradient id="appaint0_linear_279_772" x1="17.84" y1="0" x2="17.946" y2="46.445" gradientUnits="userSpaceOnUse"><stop stop-color="#fff"/><stop offset="1" stop-color="#438BFF"/></linearGradient></defs></svg><svg fill="none" viewBox="0 0 60 23" id="inesi" xmlns="http://www.w3.org/2000/svg"><path opacity=".45" d="M8.398 7.715l-6.834-3.93L0 6.473l6.835 3.9 1.535-.866.028-.03V7.715zM13.001 10.373l-1.534.896v1.791l3.358 1.936v-3.554l-1.824-1.07z" fill="#EFEFEF"/><path opacity=".8" d="M9.935 8.61l-1.538.866V7.714l1.538.895z" fill="#EFEFEF"/><path opacity=".45" d="M11.439 0h-3.07l.03 7.715 1.534.896 1.536-.896L11.439 0z" fill="#EFEFEF"/><path d="M11.469 11.269v11.499h-3.1V13.06h.029l1.537-.895 1.534-.896zM39.413 18.636l2.46 1.502c-1.679 1.618-3.098 2.86-6.428 2.86-5.01 0-6.545-3.437-6.545-5.431 0-4.71 4.634-5.52 6.313-5.52 5.704 0 6.747 3.613 6.429 5.895h-9.498c0 1.33 1.245 2.774 3.446 2.774 1.419 0 3.04-.809 3.822-2.08zm-7.066-2.514h6.023c-.203-.925-1.303-1.849-3.012-1.849-1.71 0-2.78.838-3.012 1.849zM52.704 16.788c1.621.404 2.548 1.473 2.519 2.83 0 2.948-3.533 3.382-5.242 3.382-2.287 0-4.894-.635-6.63-2.831l2.605-1.445c.608.924 1.97 2.051 4.084 2.051 1.447 0 2.287-.23 2.317-.866.028-1.155-3.012-1.387-4.315-1.56-.608-.087-4.025-.724-4.025-3.034 0-1.33 1.476-3.265 5.3-3.265 3.822 0 5.472 1.473 5.704 1.878-.811.462-1.593.924-2.346 1.358-1.158-1.098-2.982-1.155-3.648-1.155-1.477 0-1.998.49-1.998.924 0 1.04 2.606.954 5.676 1.734l-.001-.001zM59.855 11.356V22.77h-3.099v-9.652l3.1-1.762z" fill="#EFEFEF"/><path opacity=".8" d="M8.398 9.475v1.823l-1.562-.925 1.562-.898z" fill="#EFEFEF"/><path opacity=".45" d="M8.398 11.297l-1.563-.924L0 14.303l1.564 2.687 6.834-3.93v-1.763z" fill="#EFEFEF"/><path opacity=".8" d="M9.935 12.166l-1.538.895V11.3l1.538.866zM11.466 7.714v1.762l-1.534-.867 1.534-.895zM13.001 10.373l-1.534.895V9.506l1.534.867z" fill="#EFEFEF"/><path d="M11.468 9.477v1.793l-1.533.896-1.538-.866V9.477l1.538-.867 1.533.867z" fill="#EFEFEF"/><path opacity=".45" d="M19.834 6.474l-6.833 3.901-1.534-.867V7.716L18.3 3.787l1.534 2.687z" fill="#EFEFEF"/><path d="M60 9.969l-1.708.954-1.68-.954V8.032l1.68-.982L60 8.032V9.97zM26.729 16.672c0-2.11-1.39-4.536-5.097-4.508-1.91 0-2.809.49-3.822 1.011l-2.982-1.734v11.327h3.099v-6.097c-.029-1.271 1.332-2.455 2.895-2.455s2.81.866 2.81 2.455v6.097h3.098v-6.097l-.001.001z" fill="#EFEFEF"/></svg><svg fill="none" viewBox="0 0 31 24" id="instagram" xmlns="http://www.w3.org/2000/svg"><mask id="ara" style="mask-type:alpha" maskUnits="userSpaceOnUse" x="0" y="0" width="31" height="24"><path fill="#D9D9D9" d="M0 0h31v24H0z"/></mask><g clip-path="url(#arclip0_1_322)" fill="#EFEFEF"><path d="M15.09 2.999c2.963 0 3.31.013 4.482.066 1.083.048 1.668.229 2.06.383.52.202.89.44 1.277.827.387.388.63.758.827 1.277.15.392.335.978.383 2.06.053 1.172.066 1.52.066 4.482 0 2.963-.013 3.31-.066 4.482-.048 1.083-.229 1.668-.383 2.06-.202.52-.44.89-.827 1.277-.388.387-.758.63-1.277.828-.392.15-.977.334-2.06.383-1.171.053-1.52.066-4.482.066-2.963 0-3.31-.013-4.482-.066-1.083-.049-1.668-.23-2.06-.383a3.44 3.44 0 01-1.277-.828 3.388 3.388 0 01-.828-1.277c-.15-.392-.334-.977-.383-2.06-.052-1.171-.066-1.519-.066-4.482s.014-3.31.066-4.481c.049-1.083.23-1.669.383-2.06.203-.52.44-.89.828-1.278.387-.387.757-.63 1.277-.827.392-.15.977-.335 2.06-.383 1.171-.057 1.523-.066 4.482-.066zm0-1.999c-3.011 0-3.39.013-4.574.066-1.18.053-1.986.242-2.69.515a5.406 5.406 0 00-1.964 1.281 5.501 5.501 0 00-1.28 1.964c-.274.704-.463 1.51-.516 2.694C4.013 8.7 4 9.08 4 12.09s.013 3.39.066 4.574c.053 1.18.242 1.985.515 2.694.282.731.665 1.348 1.281 1.964a5.501 5.501 0 001.964 1.281c.704.273 1.51.462 2.694.515 1.184.053 1.559.066 4.574.066 3.016 0 3.39-.013 4.574-.066 1.18-.053 1.986-.242 2.695-.515a5.406 5.406 0 001.963-1.281 5.502 5.502 0 001.281-1.964c.273-.704.463-1.51.515-2.694.053-1.184.067-1.559.067-4.574 0-3.016-.014-3.39-.067-4.574-.052-1.18-.242-1.986-.515-2.695a5.407 5.407 0 00-1.28-1.963 5.502 5.502 0 00-1.964-1.281c-.705-.273-1.51-.463-2.695-.515C18.48 1.013 18.101 1 15.09 1z"/><path d="M15.09 6.397a5.698 5.698 0 10.001 11.396 5.698 5.698 0 00-.002-11.396zm0 9.39a3.698 3.698 0 11-.002-7.394 3.698 3.698 0 01.001 7.395zM21.011 7.498a1.33 1.33 0 100-2.659 1.33 1.33 0 000 2.659z"/></g><defs><clipPath id="arclip0_1_322"><path fill="#fff" transform="translate(4 1)" d="M0 0h22.18v22.18H0z"/></clipPath></defs></svg><svg fill="none" viewBox="0 0 32 43" id="map-marker" xmlns="http://www.w3.org/2000/svg"><path d="M15.51 39.171l.004.004.002.003c.077-.413.122-.962.122-1.678 0-4.094-.226-1.178-.129 1.63l.002.041z" fill="#438BFF"/><path d="M15.479 39.135l.032.036c-1.038 0-.207-.022-.032-.036z" fill="#438BFF"/><path fill-rule="evenodd" clip-rule="evenodd" d="M16.153 0C7.407 0 0 7.507 0 16.4c0 8.927 7.89 18.049 13.63 24.684l.73.844c.021.027.955 1.072 2.105 1.072h.102c1.15 0 2.076-1.045 2.1-1.072C24.086 35.65 32 25.298 32 16.4 32 7.507 26.223 0 16.153 0zm.86 40.269a1.54 1.54 0 00.174-.143c.27-.313.403-.623.536-.932.126-.293.25-.584.49-.874.259-.629.538-1.313.834-2.038C22.816 27.061 29.333 11.11 29.333 16.4c0 5.636-3.74 13.004-11.12 21.92-.41.999-.59 1.858-.73 2.523-.098.461-.175.83-.296 1.085-.797 1.696-1.593-.462-1.675-2.728-.78 4.046-4.757-5.42-.033-.065.019-.001.03-.004.03-.004-.097-2.809.129-5.725.129-1.631 0 .716-.045 1.265-.122 1.678.02.022.162.045.305.068.147.023.296.047.317.072l.697.808c.05.047.116.1.178.143zm-8.466-24.07c0-4.452 3.582-8.062 8-8.062s8 3.61 8 8.063c0 4.452-3.582 8.062-8 8.062s-8-3.61-8-8.062z" fill="#438BFF"/><path d="M15.512 39.2l-.001-.029c-1.588.389 0 .02 0 .03z" fill="#438BFF"/><path d="M15.512 39.2c0-.01-1.589.36-.001-.029-1.038 0-.207-.022-.032-.036-4.724-5.355-.747 4.11.033.065zM17.187 40.126a1.54 1.54 0 01-.174.143 1.558 1.558 0 01-.178-.143l-.697-.808c-.02-.025-.17-.048-.317-.072-.143-.023-.285-.046-.305-.069l-.004.023c.082 2.266.878 4.424 1.675 2.728.12-.256.198-.624.296-1.085.14-.665.32-1.524.73-2.523-.24.29-.364.58-.49.874-.133.309-.266.62-.536.932zM19.047 36.282c-.296.726-.575 1.41-.833 2.038 7.38-8.916 11.12-16.284 11.12-21.92 0-5.29-6.518 10.66-10.287 19.882z" fill="#438BFF"/><path fill-rule="evenodd" clip-rule="evenodd" d="M15.514 39.175l-.003-.004-.002-.04s-.011.003-.03.004l.032.036v.03l.005-.023-.001-.002-.002-.001z" fill="#438BFF"/><path d="M16.547 21.575c-2.941 0-5.395-2.47-5.395-5.434s2.393-5.375 5.333-5.375c2.943 0 5.334 2.41 5.334 5.374 0 2.965-2.33 5.435-5.272 5.435z" fill="#fff"/><path fill-rule="evenodd" clip-rule="evenodd" d="M16.547 8.137c-4.418 0-8 3.61-8 8.063 0 4.452 3.582 8.062 8 8.062s8-3.61 8-8.062c0-4.453-3.582-8.063-8-8.063zm-5.395 8.003c0 2.965 2.454 5.435 5.395 5.435 2.942 0 5.273-2.47 5.272-5.434 0-2.964-2.391-5.375-5.334-5.375-2.94 0-5.333 2.41-5.333 5.374z" fill="#fff"/></svg><svg viewBox="0 0 19 19" id="phone" xmlns="http://www.w3.org/2000/svg"><path d="M.829 3.009L3.359.482a1.634 1.634 0 012.317 0L8.4 3.202a1.639 1.639 0 010 2.322l-2.128 2.13a9.63 9.63 0 002.052 3.023 9.65 9.65 0 003.021 2.056l2.128-2.13a1.634 1.634 0 012.318 0l2.727 2.72a1.64 1.64 0 010 2.322L15.99 18.17a2.844 2.844 0 01-2.456.791c-3.144-.518-6.265-2.192-8.785-4.709C2.232 11.731.56 8.611.038 5.464a2.83 2.83 0 01.79-2.455zm.893 2.173c.463 2.8 1.969 5.592 4.237 7.86 2.268 2.268 5.059 3.773 7.859 4.236.351.06.712-.059.969-.313l2.482-2.482-2.632-2.633-2.845 2.85-.021.02-.514-.19a11.43 11.43 0 01-6.785-6.786l-.19-.513 2.87-2.866L4.52 1.73 2.038 4.213a1.112 1.112 0 00-.316.969z"/></svg><svg fill="none" viewBox="0 0 44 44" id="plan" xmlns="http://www.w3.org/2000/svg"><path d="M32.799 0H11.206A11.2 11.2 0 000 11.202v21.596A11.207 11.207 0 0011.206 44h21.593A11.205 11.205 0 0044 32.798V11.202A11.203 11.203 0 0032.799 0zm1.406 32.242l-24.4-.12a.919.919 0 110-1.837l24.4.119a.918.918 0 110 1.838zm0-9.268l-24.4-.12a.919.919 0 010-1.837l24.4.12a.919.919 0 110 1.837zm0-9.268L9.8 13.578a.919.919 0 110-1.838l24.4.12a.919.919 0 010 1.837l.005.01z" fill="url(#aupaint0_linear_513_812)" fill-opacity=".7"/><defs><linearGradient id="aupaint0_linear_513_812" x1="22" y1="0" x2="22.468" y2="50.553" gradientUnits="userSpaceOnUse"><stop stop-color="#fff"/><stop offset="1" stop-color="#438BFF"/></linearGradient></defs></svg><svg fill="none" viewBox="0 0 47 42" id="refresh" xmlns="http://www.w3.org/2000/svg"><path opacity=".7" fill-rule="evenodd" clip-rule="evenodd" d="M44.4 17.642c.43.008.854.016 1.274-.02.61-.05 1.078.07 1.326.655v.552l-5.05 5.142-.194.197c-.172.177-.344.354-.523.517a1.182 1.182 0 01-1.662-.017c-1.814-1.84-3.627-3.687-5.441-5.542-.228-.235-.477-.524-.285-.898a.962.962 0 01.972-.606c.715.028 1.431.023 2.15.017.294-.002.588-.005.882-.005-.92-4.998-4.871-9.758-10.634-11.277a14.75 14.75 0 00-16.57 7.016l-5.44-2.094C8.145 5.12 15.13-.11 23.69.002a20.032 20.032 0 0113.305 5.077c3.79 3.324 6.046 7.525 6.835 12.555.192 0 .382.004.57.008zm-9.224 11.814c.305-.384.51-.455.962-.265 1.096.46 2.204.89 3.315 1.321l1.211.472a6.235 6.235 0 01.416.188C37.6 37.169 30.6 41.405 22.923 41.138a20.774 20.774 0 01-12.648-4.684C6.6 33.487 4.16 29.703 3.197 24.992c-.267 0-.533-.004-.797-.007a30.8 30.8 0 00-1.56.007.806.806 0 01-.818-.604c-.063-.163.022-.393.1-.607.017-.046.034-.091.048-.134.068-.123.161-.23.272-.315l5.09-5.178c.73-.742 1.35-.742 2.092 0 1.726 1.742 3.45 3.482 5.174 5.218.443.448.475.772.158 1.266a.659.659 0 01-.633.349 87.687 87.687 0 00-1.865-.003c-.32.001-.644.003-.972.003.338 1.145.831 2.239 1.467 3.25 2.37 3.749 5.727 6.137 10.11 6.815 5.742.888 10.48-1.048 14.113-5.596z" fill="#438BFF"/></svg><svg fill="none" viewBox="0 0 44 44" id="standart" xmlns="http://www.w3.org/2000/svg"><path d="M32.544 0H11.438A11.432 11.432 0 000 11.434v21.132A11.435 11.435 0 0011.438 44h21.13A11.433 11.433 0 0044 32.547V11.416A11.435 11.435 0 0032.544 0zM21.98 35.497A13.503 13.503 0 018.653 19.832 13.506 13.506 0 0126.242 9.174a.92.92 0 01-.579 1.746 11.667 11.667 0 00-13.14 17.9 11.667 11.667 0 0021.068-8 .923.923 0 111.838-.184c.046.459.069.918.069 1.355a13.525 13.525 0 01-13.51 13.506h-.009zm14.7-22.652l-13.864 11.65a.919.919 0 01-1.277-.092l-4.533-5.086a.921.921 0 011.378-1.222l3.945 4.42 13.183-11.08a.92.92 0 111.18 1.41h-.013z" fill="url(#awpaint0_linear_513_813)" fill-opacity=".7"/><defs><linearGradient id="awpaint0_linear_513_813" x1="22" y1="0" x2="22" y2="57.5" gradientUnits="userSpaceOnUse"><stop stop-color="#fff"/><stop offset="1" stop-color="#438BFF"/></linearGradient></defs></svg><svg viewBox="0 0 22 21" id="star" xmlns="http://www.w3.org/2000/svg"><path d="M13.799 7.03l.116.237.26.038 6.244.912h.001c.16.025.267.172.243.328v.005a.291.291 0 01-.085.166l-4.518 4.429-.187.183.044.258 1.068 6.254a.29.29 0 01-.235.335.278.278 0 01-.178-.027l-.002-.001-5.586-2.953-.234-.123-.234.123-5.586 2.953a.282.282 0 01-.3-.021.289.289 0 01-.115-.286l1.068-6.254.044-.258-.187-.183L.921 8.716a.295.295 0 01-.006-.415.284.284 0 01.163-.083h.001l6.245-.913.261-.038.116-.236 2.79-5.688h.001a.285.285 0 01.515-.002L13.8 7.03z"/></svg><svg fill="none" viewBox="0 0 44 44" id="tech" xmlns="http://www.w3.org/2000/svg"><path opacity=".7" fill-rule="evenodd" clip-rule="evenodd" d="M32.558 0H11.442C5.122 0 0 5.123 0 11.442v21.116C0 38.878 5.123 44 11.442 44h21.116C38.878 44 44 38.877 44 32.558V11.442C44 5.122 38.877 0 32.558 0zM19.649 36.197a4.54 4.54 0 01-1.567-.358 17.156 17.156 0 00-1.13-.386c-.267-.083-.533-.166-.8-.258a2.077 2.077 0 01-1.378-2.757c.093-.251.16-.511.202-.776a7.426 7.426 0 00-.584-.52c-1.093-.901-2.006-2-2.692-3.24l-.046-.082h-.074c-.777.225-1.668.39-2.385-.064-.717-.455-.979-1.384-1.094-2.165-.052-.335-.122-.665-.196-1.01l-.052-.244a22.994 22.994 0 01-.193-.92 2.003 2.003 0 011.627-2.462l.542-.097.303-.064v-.124l.003-.015c.037-.21.087-.5.181-.904a22.292 22.292 0 011.314-3.59c.042-.089.077-.18.106-.275l-.041-.041c-.538-.492-1.149-1.168-1.117-2.05.032-.882.763-1.59 1.31-2.013.315-.246.615-.52.928-.809l.06-.055c.211-.202.427-.4.648-.592a2.216 2.216 0 011.705-.616 1.87 1.87 0 011.323.832c.372.524.565.62 1.438.298a13.942 13.942 0 013.245-.638l.657-.083a1.3 1.3 0 00.239-.041c.184-.745.496-1.65 1.277-2.06.781-.408 1.71-.142 2.51.166.349.138.712.253 1.093.372.28.088.56.18.836.276a2.077 2.077 0 011.379 2.72c-.09.246-.154.5-.193.759.144.162.297.316.46.46l.188.188a27.26 27.26 0 012.55 3.046c.046.067.098.129.157.184h.05c.315-.095.638-.16.965-.197a1.99 1.99 0 012.298 1.52c.18.768.332 1.549.477 2.288.063.32.123.63.184.93a1.922 1.922 0 01-.032.804 2.1 2.1 0 01-1.686 1.548c-.26.049-.516.121-.763.216 0 .022-.023.107-.052.219-.027.102-.06.226-.086.342l-.073.312a22.061 22.061 0 01-1.168 3.295l-.183.46c-.03.072-.048.123-.06.16a1.82 1.82 0 01-.014.037c.584.575 1.2 1.255 1.158 2.11-.032.693-.46 1.318-1.378 2.09-.174.143-.343.29-.514.438-.133.115-.267.232-.406.348-.116.105-.235.21-.353.313l-.327.29a2.178 2.178 0 01-1.686.596 1.916 1.916 0 01-1.337-.873c-.391-.546-.598-.648-1.324-.298-1.3.572-2.717.83-4.136.753h-.105v.06c-.175.735-.483 1.627-1.26 2.031-.287.147-.605.22-.928.216zm-7.968-9.861a1.439 1.439 0 011.3.864 9.708 9.708 0 002.34 2.803c1.217 1.038 1.314 1.378.845 2.867-.156.506-.027.754.46.92.165.057.335.112.504.166l.254.081c.4.124.813.258 1.222.414.795.308 1.126.29 1.264.216.138-.074.326-.308.51-1.07a1.434 1.434 0 011.59-1.191 7.6 7.6 0 003.465-.616c1.328-.63 2.33-.381 3.161.777a.486.486 0 00.313.239.822.822 0 00.547-.253c.167-.142.328-.288.49-.434l.158-.14.031-.029c.294-.267.6-.546.924-.808.759-.62.85-.919.855-1.015 0-.267-.52-.79-.717-.988a1.502 1.502 0 01-.266-1.838l.184-.46c.446-.994.812-2.022 1.093-3.074l.074-.299c.299-1.31.56-1.553 2.008-1.884.34-.078.46-.165.588-.487a.542.542 0 000-.152c-.184-.978-.4-2.09-.648-3.161a.523.523 0 00-.652-.395c-.241.027-.48.074-.713.142a1.54 1.54 0 01-1.838-.694 26.297 26.297 0 00-2.412-2.881l-.184-.184c-.979-.965-1.052-1.296-.625-2.702a.611.611 0 00-.46-.919c-.262-.092-.528-.18-.794-.262-.386-.12-.786-.248-1.181-.4-.662-.257-1.094-.335-1.292-.234-.11.06-.326.276-.528 1.098a1.525 1.525 0 01-1.49 1.177l-.633.138c-.987.072-1.962.26-2.905.56-1.052.386-2.164.552-3.152-.827a.46.46 0 00-.29-.225.84.84 0 00-.565.266c-.211.18-.413.368-.615.556l-.082.076c-.32.294-.648.596-1.003.871-.46.363-.73.694-.74.919 0 .138.101.409.639.92a1.576 1.576 0 01.294 1.993 20.608 20.608 0 00-1.231 3.327 9.018 9.018 0 00-.155.765l-.006.04c-.175 1.029-.506 1.18-1.475 1.378l-.524.11c-.46.115-.598.3-.51.759.055.29.12.579.183.868l.038.174c.08.378.165.77.224 1.168.134.86.322 1.094.419 1.158.096.064.413.115 1.18-.11.173-.05.35-.076.53-.078zm10.316 4.13a8.47 8.47 0 11-.004-16.934 8.47 8.47 0 01.005 16.935zm0-15.462a6.995 6.995 0 106.622 9.19 6.985 6.985 0 00-6.622-9.19zm-1.41 9.418c.43.25.921.381 1.42.379h-.014a2.784 2.784 0 002.651-1.935 2.757 2.757 0 00-.156-2.146 2.804 2.804 0 10-3.901 3.703zm.642-3.5c.226-.166.498-.255.778-.257l.009.01a1.342 1.342 0 011.172.716 1.323 1.323 0 01.078 1.016 1.327 1.327 0 01-2.541-.057 1.323 1.323 0 01.022-.766c.087-.266.256-.498.482-.663z" fill="url(#aypaint0_linear_513_814)"/><defs><linearGradient id="aypaint0_linear_513_814" x1="22" y1="0" x2="22" y2="51.5" gradientUnits="userSpaceOnUse"><stop stop-color="#fff"/><stop offset="1" stop-color="#438BFF"/></linearGradient></defs></svg><svg fill="none" viewBox="0 0 31 24" id="telegram" xmlns="http://www.w3.org/2000/svg"><mask id="aza" style="mask-type:alpha" maskUnits="userSpaceOnUse" x="0" y="0" width="31" height="24"><path fill="#D9D9D9" d="M0 0h31v24H0z"/></mask><g mask="url(#aza)"><path d="M28 1L3 10l8.654 3M28 1L11.654 13M28 1l-7.692 21-8.654-9" stroke="#EFEFEF" stroke-width="1.5" stroke-linecap="round" stroke-linejoin="round"/></g></svg><svg fill="none" viewBox="0 0 45 44" id="time" xmlns="http://www.w3.org/2000/svg"><path d="M22.01 12.596a10.562 10.562 0 100 21.123 10.562 10.562 0 000-21.123zm4.793 16.333a.92.92 0 01-1.3-.023l-4.132-4.293a.918.918 0 01-.257-.62l-.101-6.429a.919.919 0 011.836-.027l.097 6.047 3.903 4.05a.918.918 0 01-.046 1.295zM22.01 12.596a10.562 10.562 0 100 21.123 10.562 10.562 0 000-21.123zm4.794 16.333a.92.92 0 01-1.3-.023l-4.132-4.293a.918.918 0 01-.257-.62l-.101-6.429a.919.919 0 011.836-.027l.097 6.047 3.903 4.05a.918.918 0 01-.046 1.295zM32.557 0H11.434A11.43 11.43 0 000 11.43v21.122A11.434 11.434 0 0011.457 44H32.58a11.434 11.434 0 0011.434-11.434V11.443A11.429 11.429 0 0032.557.018V0zM15.69 6.654l12.637.036a.918.918 0 110 1.837L15.69 8.491a.918.918 0 110-1.837zm6.318 28.888a12.398 12.398 0 110-24.796 12.398 12.398 0 010 24.796zm0-22.96a10.562 10.562 0 1010.562 10.561 10.561 10.561 0 00-10.562-10.547v-.014zm4.794 16.347a.92.92 0 01-1.3-.023l-4.132-4.293a.918.918 0 01-.257-.62l-.101-6.429a.919.919 0 011.836-.027l.097 6.047 3.903 4.05a.918.918 0 01-.046 1.295z" fill="url(#bapaint0_linear_513_818)" fill-opacity=".7"/><defs><linearGradient id="bapaint0_linear_513_818" x1="22.007" y1="0" x2="22" y2="52.5" gradientUnits="userSpaceOnUse"><stop stop-color="#fff"/><stop offset="1" stop-color="#438BFF"/></linearGradient></defs></svg><svg fill="none" viewBox="0 0 43 44" id="union" xmlns="http://www.w3.org/2000/svg"><path opacity=".7" fill-rule="evenodd" clip-rule="evenodd" d="M0 19.97h10.432l3.61-7.709a2.087 2.087 0 011.835-1.2 2.085 2.085 0 011.91 1.044l8.272 15.647 4.172-7.302a2.086 2.086 0 011.816-1.043h10.911A21.562 21.562 0 000 19.97zm36.149 17.445A21.573 21.573 0 0043 23.58h-9.774l-5.467 9.566a2.086 2.086 0 01-1.815 1.043 2.088 2.088 0 01-1.804-1.106L16.044 17.82l-2.389 5.122a2.087 2.087 0 01-1.888 1.2H.105a21.573 21.573 0 0036.044 13.272z" fill="url(#bbpaint0_linear_279_768)"/><defs><linearGradient id="bbpaint0_linear_279_768" x1="21.5" y1="0" x2="22.602" y2="56.23" gradientUnits="userSpaceOnUse"><stop stop-color="#fff"/><stop offset="1" stop-color="#438BFF"/></linearGradient></defs></svg><svg viewBox="0 0 23 23" id="whatsapp" xmlns="http://www.w3.org/2000/svg"><path d="M16.027 13.474c-.244-.126-1.464-.723-1.69-.804-.228-.085-.394-.126-.558.126-.166.25-.638.804-.786.973-.144.166-.29.186-.534.062-1.456-.727-2.41-1.298-3.37-2.944-.253-.438.254-.407.728-1.352.08-.167.04-.308-.022-.434-.063-.126-.557-1.343-.764-1.84-.2-.482-.407-.415-.557-.424-.144-.009-.308-.009-.474-.009a.916.916 0 00-.66.308c-.227.25-.867.849-.867 2.066 0 1.218.887 2.397 1.008 2.563.126.166 1.745 2.664 4.232 3.74 1.572.678 2.188.736 2.974.62.478-.072 1.464-.598 1.668-1.18.205-.579.205-1.075.144-1.179-.06-.11-.227-.173-.471-.292z"/><path d="M20.78 7.6a10.068 10.068 0 00-5.38-5.38 10.014 10.014 0 00-3.9-.783h-.045a10.04 10.04 0 00-10.017 10.11c.006 1.559.38 3.106 1.078 4.49v3.414c0 .57.462 1.033 1.033 1.033h3.416a10.094 10.094 0 004.49 1.078h.047c1.346 0 2.65-.26 3.88-.77a9.984 9.984 0 003.207-2.138 10.04 10.04 0 002.974-7.109A10.026 10.026 0 0020.78 7.6zm-3.393 9.839a8.311 8.311 0 01-5.887 2.416h-.038a8.386 8.386 0 01-3.888-.977l-.189-.1H4.223v-3.163l-.101-.189a8.385 8.385 0 01-.977-3.888A8.304 8.304 0 015.56 5.613a8.293 8.293 0 015.903-2.468h.038c1.123 0 2.213.217 3.24.649a8.302 8.302 0 012.672 1.797 8.32 8.32 0 012.446 5.948 8.324 8.324 0 01-2.473 5.9z"/></svg><svg viewBox="0 0 146 22" id="yandex-map" xmlns="http://www.w3.org/2000/svg"><path d="M8.997 17.887h3.187V0H7.54C2.871 0 .424 2.338.424 5.79c0 2.752 1.34 4.376 3.746 6.048L0 17.888h3.454l4.644-6.772L6.49 10.06C4.536 8.777 3.587 7.77 3.587 5.61c0-1.908 1.373-3.19 3.986-3.19h1.424v15.467zm61.544.252c1.456 0 2.48-.252 3.246-.796v-2.492c-.791.535-1.74.868-3.055.868-2.247 0-3.17-1.697-3.17-4.368 0-2.81 1.14-4.246 3.195-4.246 1.215 0 2.397.406 3.03.795V5.302c-.658-.365-1.815-.617-3.371-.617-4.011 0-6.1 2.801-6.1 6.74 0 4.327 2.03 6.714 6.225 6.714zM50.917 17.01v-2.5c-.974.65-2.614 1.21-4.145 1.21-2.297 0-3.163-1.048-3.296-3.216h7.574v-1.616c0-4.506-2.031-6.203-5.177-6.203-3.82 0-5.642 2.85-5.642 6.763 0 4.507 2.271 6.69 6.283 6.69 1.997 0 3.479-.51 4.402-1.128zm10.028.877h3.554l-5.035-6.877 4.435-6.073h-3.17L56.3 11.01V4.937h-3.146v12.95h3.146v-6.26l4.644 6.26zm-21.48-2.42h-1.398V4.938h-9.155v1.112c0 3.158-.208 7.25-1.315 9.419h-.982v5.375h2.905v-2.956h7.04v2.956h2.905v-5.375zM22.163 4.938v5.123h-4.195V4.937h-3.146v12.95h3.146V12.48h4.195v5.407H25.3V4.937h-3.137zm23.66 2.168c1.556 0 2.03 1.258 2.03 2.882v.252h-4.377c.084-2.055.84-3.134 2.347-3.134zM34.93 15.468h-4.436c.874-1.957 1.116-5.481 1.116-7.722v-.39h3.32v8.112zm55.244 2.42h3.72l-6.516-9.395L93.286 0H90.04l-5.676 8.233V0h-3.187v17.887h3.187V9.492l5.81 8.395zm14.431-8.835c0-3.134-1.639-4.32-4.96-4.32-2.08 0-3.72.642-4.669 1.186v2.55c.84-.626 2.689-1.291 4.303-1.291 1.498 0 2.189.511 2.189 1.908V9.8h-.508c-4.802 0-6.932 1.551-6.932 4.174 0 2.622 1.63 4.092 4.06 4.092 1.849 0 2.639-.593 3.247-1.21h.133c.025.333.133.771.233 1.031h3.062a31.084 31.084 0 01-.158-3.166V9.053zm-3.137 5.74c-.4.569-1.14 1.032-2.247 1.032-1.315 0-1.981-.723-1.981-1.827 0-1.47 1.082-2.005 3.778-2.005h.45v2.8zm8.572-9.856h-2.905v16.677h3.138v-5.245c.799 1.153 1.956 1.77 3.304 1.77 3.054 0 5.168-2.387 5.168-6.74 0-4.327-2.056-6.714-5.01-6.714-1.481 0-2.696.666-3.537 1.924l-.158-1.672zm2.746 10.782c-1.664 0-2.513-1.307-2.513-4.295 0-3.012.899-4.32 2.671-4.32 1.715 0 2.555 1.308 2.555 4.296 0 3.012-.898 4.32-2.713 4.32zm17.011-8.363v-2.42h-10.528v2.42h3.696v10.531h3.137V7.357h3.695zm1.848-2.42v12.951h4.777c3.088 0 5.276-1.543 5.276-4.587 0-2.883-1.955-4.401-5.226-4.401h-1.69V4.937h-3.137zm11.21 0v12.951H146V4.937h-3.146zm-6.616 10.532h-1.457v-4.15h1.532c1.348 0 2.139.593 2.139 2.087 0 1.494-.874 2.063-2.214 2.063z"/></svg><svg fill="none" viewBox="0 0 31 24" id="youtube" xmlns="http://www.w3.org/2000/svg"><mask id="bea" style="mask-type:alpha" maskUnits="userSpaceOnUse" x="0" y="0" width="31" height="24"><path fill="#D9D9D9" d="M0 0h31v24H0z"/></mask><g mask="url(#bea)"><path d="M27.63 2.324C26.843 1.755 24.656 1 15.491 1c-9.82 0-11.278.867-11.745 1.151C1.258 3.656 1.022 10.317 1 11.668c.03 1.784.316 7.719 2.745 9.187C4.212 21.138 5.66 22 15.492 22c9.17 0 11.355-.752 12.137-1.318 2.121-1.535 2.365-6.824 2.371-9.038-.005-1.78-.191-7.74-2.37-9.32zm-1.058 16.88c-.316.228-2.127.974-11.08.974-8.655 0-10.47-.676-10.814-.884-.873-.528-1.796-3.328-1.868-7.631.072-4.294 1.006-7.429 1.87-7.95.344-.209 2.167-.89 10.812-.89 8.945 0 10.762.75 11.08.98.775.562 1.605 3.521 1.617 7.847-.012 4.394-.847 6.996-1.617 7.553zm-5.176-8.42L13.25 5.752a.901.901 0 00-1.25.32.916.916 0 00-.123.46v10.063c0 .241.096.473.265.644a.903.903 0 001.108.136l8.146-5.032a.913.913 0 000-1.56zm-7.708 4.198V8.146l5.488 3.418-5.488 3.418z" fill="#EFEFEF"/></g></svg></svg>